<svg width="35" height="35" viewBox="0 0 35 35" fill="none" xmlns="http://www.w3.org/2000/svg">
<g clip-path="url(#clip0_105_712)">
<path d="M27.3682 12.084C29.8524 12.084 31.8662 10.0701 31.8662 7.58594C31.8662 5.10173 29.8524 3.08789 27.3682 3.08789C24.884 3.08789 22.8701 5.10173 22.8701 7.58594C22.8701 10.0701 24.884 12.084 27.3682 12.084Z" fill="#363A8B"/>
<path d="M26.2519 17.2482C25.374 18.652 23.4359 19.0236 21.9228 18.0798C20.4097 17.1359 4.09766 3.40918 4.09766 3.40918C4.09766 3.40918 23.5896 12.0485 25.1014 12.994C26.6133 13.9395 27.1295 15.8436 26.2519 17.2482Z" fill="#363A8B"/>
<path d="M25.9162 32.8479C24.0702 34.3115 21.178 33.7328 19.4563 31.5551C17.7345 29.3773 15.0405 21.6178 3.17969 4.32715C6.82995 7.35675 24.4193 24.0762 26.1398 26.2539C27.8604 28.4317 27.7621 31.384 25.9162 32.8479Z" fill="#363A8B"/>
<path d="M27.3682 12.084C29.8524 12.084 31.8662 10.0701 31.8662 7.58594C31.8662 5.10173 29.8524 3.08789 27.3682 3.08789C24.884 3.08789 22.8701 5.10173 22.8701 7.58594C22.8701 10.0701 24.884 12.084 27.3682 12.084Z" fill="#363A8B"/>
<path d="M26.2519 17.2482C25.374 18.652 23.4359 19.0236 21.9228 18.0798C20.4097 17.1359 4.09766 3.40918 4.09766 3.40918C4.09766 3.40918 23.5896 12.0485 25.1014 12.994C26.6133 13.9395 27.1295 15.8436 26.2519 17.2482Z" fill="#363A8B"/>
<path d="M25.9162 32.8479C24.0702 34.3115 21.178 33.7328 19.4563 31.5551C17.7345 29.3773 15.0405 21.6178 3.17969 4.32715C6.82995 7.35675 24.4193 24.0762 26.1398 26.2539C27.8604 28.4317 27.7621 31.384 25.9162 32.8479Z" fill="#363A8B"/>
</g>
<defs>
<clipPath id="clip0_105_712">
<rect width="35" height="35" fill="white"/>
</clipPath>
</defs>
</svg>
