<svg width="118" height="118" viewBox="0 0 118 118" fill="none" xmlns="http://www.w3.org/2000/svg">
<path d="M6.37793 9.50577C6.37793 8.6654 6.71393 7.85945 7.31202 7.26522C7.91011 6.67099 8.72129 6.33716 9.56712 6.33716V9.50577H6.37793Z" fill="#363A8B"/>
<path d="M9.56712 6.33716H12.7563V9.50577H9.56712V6.33716Z" fill="#363A8B"/>
<path d="M12.7563 6.33716H15.9455V9.50577H12.7563V6.33716Z" fill="#363A8B"/>
<path d="M15.9455 6.33716H19.1347V9.50577H15.9455V6.33716Z" fill="#363A8B"/>
<path d="M19.1347 6.33716H22.3239V9.50577H19.1347V6.33716Z" fill="#363A8B"/>
<path d="M22.3239 6.33716H25.5131V9.50577H22.3239V6.33716Z" fill="#363A8B"/>
<path d="M25.5131 6.33716C26.3589 6.33716 27.1701 6.67099 27.7682 7.26522C28.3663 7.85945 28.7023 8.6654 28.7023 9.50577H25.5131V6.33716Z" fill="#363A8B"/>
<path d="M31.8914 7.92147C31.8914 7.50128 32.0594 7.09831 32.3585 6.80119C32.6575 6.50408 33.0631 6.33716 33.486 6.33716C33.909 6.33716 34.3145 6.50408 34.6136 6.80119C34.9126 7.09831 35.0806 7.50128 35.0806 7.92147V9.50577H31.8914V7.92147Z" fill="#363A8B"/>
<path d="M55.8104 6.33716C56.2333 6.33716 56.6389 6.50408 56.9379 6.80119C57.237 7.09831 57.405 7.50128 57.405 7.92147C57.405 8.34165 57.237 8.74462 56.9379 9.04174C56.6389 9.33885 56.2333 9.50577 55.8104 9.50577C55.3874 9.50577 54.9819 9.33885 54.6828 9.04174C54.3838 8.74462 54.2158 8.34165 54.2158 7.92147C54.2158 7.50128 54.3838 7.09831 54.6828 6.80119C54.9819 6.50408 55.3874 6.33716 55.8104 6.33716Z" fill="#363A8B"/>
<path d="M62.1887 6.33716C61.7658 6.33716 61.3602 6.50408 61.0612 6.80119C60.7621 7.09831 60.5941 7.50128 60.5941 7.92147C60.5941 8.34165 60.7621 8.74462 61.0612 9.04174C61.3602 9.33885 61.7658 9.50577 62.1887 9.50577H63.7833V6.33716H62.1887Z" fill="#363A8B"/>
<path d="M63.7833 6.33716C64.6292 6.33716 65.4403 6.67099 66.0384 7.26522C66.6365 7.85945 66.9725 8.6654 66.9725 9.50577H63.7833V6.33716Z" fill="#363A8B"/>
<path d="M74.9455 6.33716C74.5226 6.33716 74.117 6.50408 73.8179 6.80119C73.5189 7.09831 73.3509 7.50128 73.3509 7.92147C73.3509 8.34165 73.5189 8.74462 73.8179 9.04174C74.117 9.33885 74.5226 9.50577 74.9455 9.50577H76.5401V6.33716H74.9455Z" fill="#363A8B"/>
<path d="M76.5401 6.33716H79.7293V9.50577H76.5401V6.33716Z" fill="#363A8B"/>
<path d="M79.7293 6.33716H82.9185V9.50577H79.7293V6.33716Z" fill="#363A8B"/>
<path d="M84.5131 6.33716C84.936 6.33716 85.3416 6.50408 85.6406 6.80119C85.9397 7.09831 86.1077 7.50128 86.1077 7.92147C86.1077 8.34165 85.9397 8.74462 85.6406 9.04174C85.3416 9.33885 84.936 9.50577 84.5131 9.50577H82.9185V6.33716H84.5131Z" fill="#363A8B"/>
<path d="M89.2968 9.50577C89.2968 8.6654 89.6328 7.85945 90.2309 7.26522C90.829 6.67099 91.6402 6.33716 92.486 6.33716V9.50577H89.2968Z" fill="#363A8B"/>
<path d="M92.486 6.33716H95.6752V9.50577H92.486V6.33716Z" fill="#363A8B"/>
<path d="M95.6752 6.33716H98.8644V9.50577H95.6752V6.33716Z" fill="#363A8B"/>
<path d="M98.8644 6.33716H102.054V9.50577H98.8644V6.33716Z" fill="#363A8B"/>
<path d="M102.054 6.33716H105.243V9.50577H102.054V6.33716Z" fill="#363A8B"/>
<path d="M105.243 6.33716H108.432V9.50577H105.243V6.33716Z" fill="#363A8B"/>
<path d="M108.432 6.33716C109.278 6.33716 110.089 6.67099 110.687 7.26522C111.285 7.85945 111.621 8.6654 111.621 9.50577H108.432V6.33716Z" fill="#363A8B"/>
<path d="M6.37793 9.50577H9.56712V12.6744H6.37793V9.50577Z" fill="#363A8B"/>
<path d="M25.5131 9.50577H28.7023V12.6744H25.5131V9.50577Z" fill="#363A8B"/>
<path d="M31.8914 9.50577C31.8914 10.3461 32.2274 11.1521 32.8255 11.7463C33.4236 12.3406 34.2348 12.6744 35.0806 12.6744V9.50577H31.8914Z" fill="#363A8B"/>
<path d="M36.6752 9.50577C37.0981 9.50577 37.5037 9.67269 37.8028 9.9698C38.1018 10.2669 38.2698 10.6699 38.2698 11.0901C38.2698 11.5103 38.1018 11.9132 37.8028 12.2104C37.5037 12.5075 37.0981 12.6744 36.6752 12.6744H35.0806V9.50577H36.6752Z" fill="#363A8B"/>
<path d="M43.0536 9.50577C42.6307 9.50577 42.2251 9.67269 41.9261 9.9698C41.627 10.2669 41.459 10.6699 41.459 11.0901C41.459 11.5103 41.627 11.9132 41.9261 12.2104C42.2251 12.5075 42.6307 12.6744 43.0536 12.6744H44.6482V9.50577H43.0536Z" fill="#363A8B"/>
<path d="M44.6482 9.50577H47.8374V12.6744H44.6482V9.50577Z" fill="#363A8B"/>
<path d="M49.432 9.50577C49.8549 9.50577 50.2605 9.67269 50.5595 9.9698C50.8586 10.2669 51.0266 10.6699 51.0266 11.0901C51.0266 11.5103 50.8586 11.9132 50.5595 12.2104C50.2605 12.5075 49.8549 12.6744 49.432 12.6744H47.8374V9.50577H49.432Z" fill="#363A8B"/>
<path d="M58.9995 9.50577C59.4225 9.50577 59.8281 9.67269 60.1271 9.9698C60.4261 10.2669 60.5941 10.6699 60.5941 11.0901C60.5941 11.5103 60.4261 11.9132 60.1271 12.2104C59.8281 12.5075 59.4225 12.6744 58.9995 12.6744C58.5766 12.6744 58.171 12.5075 57.872 12.2104C57.573 11.9132 57.405 11.5103 57.405 11.0901C57.405 10.6699 57.573 10.2669 57.872 9.9698C58.171 9.67269 58.5766 9.50577 58.9995 9.50577Z" fill="#363A8B"/>
<path d="M63.7833 9.50577C63.7833 10.3461 64.1193 11.1521 64.7174 11.7463C65.3155 12.3406 66.1267 12.6744 66.9725 12.6744V9.50577H63.7833Z" fill="#363A8B"/>
<path d="M68.5671 9.50577C68.99 9.50577 69.3956 9.67269 69.6947 9.9698C69.9937 10.2669 70.1617 10.6699 70.1617 11.0901C70.1617 11.5103 69.9937 11.9132 69.6947 12.2104C69.3956 12.5075 68.99 12.6744 68.5671 12.6744H66.9725V9.50577H68.5671Z" fill="#363A8B"/>
<path d="M79.7293 11.0901C79.7293 11.5103 79.8973 11.9132 80.1963 12.2104C80.4954 12.5075 80.901 12.6744 81.3239 12.6744C81.7468 12.6744 82.1524 12.5075 82.4514 12.2104C82.7505 11.9132 82.9185 11.5103 82.9185 11.0901V9.50577H79.7293V11.0901Z" fill="#363A8B"/>
<path d="M89.2968 9.50577H92.486V12.6744H89.2968V9.50577Z" fill="#363A8B"/>
<path d="M108.432 9.50577H111.621V12.6744H108.432V9.50577Z" fill="#363A8B"/>
<path d="M6.37793 12.6744H9.56712V15.843H6.37793V12.6744Z" fill="#363A8B"/>
<path d="M12.7563 15.843C12.7563 15.0026 13.0923 14.1967 13.6904 13.6025C14.2885 13.0082 15.0997 12.6744 15.9455 12.6744V15.843H12.7563Z" fill="#363A8B"/>
<path d="M15.9455 12.6744H19.1347V15.843H15.9455V12.6744Z" fill="#363A8B"/>
<path d="M19.1347 12.6744C19.9805 12.6744 20.7917 13.0082 21.3898 13.6025C21.9879 14.1967 22.3239 15.0026 22.3239 15.843H19.1347V12.6744Z" fill="#363A8B"/>
<path d="M25.5131 12.6744H28.7023V15.843H25.5131V12.6744Z" fill="#363A8B"/>
<path d="M62.1887 12.6744C62.6117 12.6744 63.0172 12.8413 63.3163 13.1384C63.6153 13.4355 63.7833 13.8385 63.7833 14.2587C63.7833 14.6789 63.6153 15.0819 63.3163 15.379C63.0172 15.6761 62.6117 15.843 62.1887 15.843C61.7658 15.843 61.3602 15.6761 61.0612 15.379C60.7621 15.0819 60.5941 14.6789 60.5941 14.2587C60.5941 13.8385 60.7621 13.4355 61.0612 13.1384C61.3602 12.8413 61.7658 12.6744 62.1887 12.6744Z" fill="#363A8B"/>
<path d="M84.5131 12.6744C84.936 12.6744 85.3416 12.8413 85.6406 13.1384C85.9397 13.4355 86.1077 13.8385 86.1077 14.2587C86.1077 14.6789 85.9397 15.0819 85.6406 15.379C85.3416 15.6761 84.936 15.843 84.5131 15.843C84.0901 15.843 83.6846 15.6761 83.3855 15.379C83.0865 15.0819 82.9185 14.6789 82.9185 14.2587C82.9185 13.8385 83.0865 13.4355 83.3855 13.1384C83.6846 12.8413 84.0901 12.6744 84.5131 12.6744Z" fill="#363A8B"/>
<path d="M89.2968 12.6744H92.486V15.843H89.2968V12.6744Z" fill="#363A8B"/>
<path d="M95.6752 15.843C95.6752 15.0026 96.0112 14.1967 96.6093 13.6025C97.2074 13.0082 98.0186 12.6744 98.8644 12.6744V15.843H95.6752Z" fill="#363A8B"/>
<path d="M98.8644 12.6744H102.054V15.843H98.8644V12.6744Z" fill="#363A8B"/>
<path d="M102.054 12.6744C102.899 12.6744 103.711 13.0082 104.309 13.6025C104.907 14.1967 105.243 15.0026 105.243 15.843H102.054V12.6744Z" fill="#363A8B"/>
<path d="M108.432 12.6744H111.621V15.843H108.432V12.6744Z" fill="#363A8B"/>
<path d="M6.37793 15.843H9.56712V19.0116H6.37793V15.843Z" fill="#363A8B"/>
<path d="M12.7563 15.843H15.9455V19.0116H12.7563V15.843Z" fill="#363A8B"/>
<path d="M15.9455 15.843H19.1347V19.0116H15.9455V15.843Z" fill="#363A8B"/>
<path d="M19.1347 15.843H22.3239V19.0116H19.1347V15.843Z" fill="#363A8B"/>
<path d="M25.5131 15.843H28.7023V19.0116H25.5131V15.843Z" fill="#363A8B"/>
<path d="M31.8914 17.4273C31.8914 17.0071 32.0594 16.6041 32.3585 16.307C32.6575 16.0099 33.0631 15.843 33.486 15.843C33.909 15.843 34.3145 16.0099 34.6136 16.307C34.9126 16.6041 35.0806 17.0071 35.0806 17.4273V19.0116H31.8914V17.4273Z" fill="#363A8B"/>
<path d="M43.0536 15.843C43.4765 15.843 43.8821 16.0099 44.1812 16.307C44.4802 16.6041 44.6482 17.0071 44.6482 17.4273C44.6482 17.8475 44.4802 18.2505 44.1812 18.5476C43.8821 18.8447 43.4765 19.0116 43.0536 19.0116C42.6307 19.0116 42.2251 18.8447 41.9261 18.5476C41.627 18.2505 41.459 17.8475 41.459 17.4273C41.459 17.0071 41.627 16.6041 41.9261 16.307C42.2251 16.0099 42.6307 15.843 43.0536 15.843Z" fill="#363A8B"/>
<path d="M51.0266 19.0116C51.0266 18.1712 51.3626 17.3653 51.9607 16.7711C52.5588 16.1768 53.3699 15.843 54.2158 15.843V19.0116H51.0266Z" fill="#363A8B"/>
<path d="M54.2158 15.843H57.405V19.0116H54.2158V15.843Z" fill="#363A8B"/>
<path d="M58.9995 15.843C59.4225 15.843 59.8281 16.0099 60.1271 16.307C60.4261 16.6041 60.5941 17.0071 60.5941 17.4273C60.5941 17.8475 60.4261 18.2505 60.1271 18.5476C59.8281 18.8447 59.4225 19.0116 58.9995 19.0116H57.405V15.843H58.9995Z" fill="#363A8B"/>
<path d="M74.9455 15.843C74.5226 15.843 74.117 16.0099 73.8179 16.307C73.5189 16.6041 73.3509 17.0071 73.3509 17.4273C73.3509 17.8475 73.5189 18.2505 73.8179 18.5476C74.117 18.8447 74.5226 19.0116 74.9455 19.0116H76.5401V15.843H74.9455Z" fill="#363A8B"/>
<path d="M78.1347 15.843C78.5576 15.843 78.9632 16.0099 79.2622 16.307C79.5613 16.6041 79.7293 17.0071 79.7293 17.4273C79.7293 17.8475 79.5613 18.2505 79.2622 18.5476C78.9632 18.8447 78.5576 19.0116 78.1347 19.0116H76.5401V15.843H78.1347Z" fill="#363A8B"/>
<path d="M89.2968 15.843H92.486V19.0116H89.2968V15.843Z" fill="#363A8B"/>
<path d="M95.6752 15.843H98.8644V19.0116H95.6752V15.843Z" fill="#363A8B"/>
<path d="M98.8644 15.843H102.054V19.0116H98.8644V15.843Z" fill="#363A8B"/>
<path d="M102.054 15.843H105.243V19.0116H102.054V15.843Z" fill="#363A8B"/>
<path d="M108.432 15.843H111.621V19.0116H108.432V15.843Z" fill="#363A8B"/>
<path d="M6.37793 19.0116H9.56712V22.1802H6.37793V19.0116Z" fill="#363A8B"/>
<path d="M12.7563 19.0116C12.7563 19.852 13.0923 20.6579 13.6904 21.2522C14.2885 21.8464 15.0997 22.1802 15.9455 22.1802V19.0116H12.7563Z" fill="#363A8B"/>
<path d="M15.9455 19.0116H19.1347V22.1802H15.9455V19.0116Z" fill="#363A8B"/>
<path d="M19.1347 22.1802C19.9805 22.1802 20.7917 21.8464 21.3898 21.2522C21.9879 20.6579 22.3239 19.852 22.3239 19.0116H19.1347V22.1802Z" fill="#363A8B"/>
<path d="M25.5131 19.0116H28.7023V22.1802H25.5131V19.0116Z" fill="#363A8B"/>
<path d="M31.8914 19.0116H35.0806V22.1802H31.8914V19.0116Z" fill="#363A8B"/>
<path d="M39.8644 19.0116C40.2873 19.0116 40.6929 19.1785 40.992 19.4756C41.291 19.7728 41.459 20.1757 41.459 20.5959C41.459 21.0161 41.291 21.4191 40.992 21.7162C40.6929 22.0133 40.2873 22.1802 39.8644 22.1802C39.4415 22.1802 39.0359 22.0133 38.7369 21.7162C38.4378 21.4191 38.2698 21.0161 38.2698 20.5959C38.2698 20.1757 38.4378 19.7728 38.7369 19.4756C39.0359 19.1785 39.4415 19.0116 39.8644 19.0116Z" fill="#363A8B"/>
<path d="M51.0266 20.5959C51.0266 21.0161 51.1946 21.4191 51.4936 21.7162C51.7927 22.0133 52.1983 22.1802 52.6212 22.1802C53.0441 22.1802 53.4497 22.0133 53.7487 21.7162C54.0478 21.4191 54.2158 21.0161 54.2158 20.5959V19.0116H51.0266V20.5959Z" fill="#363A8B"/>
<path d="M60.5941 20.5959C60.5941 20.1757 60.7621 19.7728 61.0612 19.4756C61.3602 19.1785 61.7658 19.0116 62.1887 19.0116C62.6117 19.0116 63.0172 19.1785 63.3163 19.4756C63.6153 19.7728 63.7833 20.1757 63.7833 20.5959V22.1802H60.5941V20.5959Z" fill="#363A8B"/>
<path d="M68.5671 19.0116C68.1442 19.0116 67.7386 19.1785 67.4396 19.4756C67.1405 19.7728 66.9725 20.1757 66.9725 20.5959C66.9725 21.0161 67.1405 21.4191 67.4396 21.7162C67.7386 22.0133 68.1442 22.1802 68.5671 22.1802H70.1617V19.0116H68.5671Z" fill="#363A8B"/>
<path d="M70.1617 19.0116C71.0075 19.0116 71.8187 19.3454 72.4168 19.9397C73.0149 20.5339 73.3509 21.3399 73.3509 22.1802H70.1617V19.0116Z" fill="#363A8B"/>
<path d="M89.2968 19.0116H92.486V22.1802H89.2968V19.0116Z" fill="#363A8B"/>
<path d="M95.6752 19.0116C95.6752 19.852 96.0112 20.6579 96.6093 21.2522C97.2074 21.8464 98.0186 22.1802 98.8644 22.1802V19.0116H95.6752Z" fill="#363A8B"/>
<path d="M98.8644 19.0116H102.054V22.1802H98.8644V19.0116Z" fill="#363A8B"/>
<path d="M102.054 22.1802C102.899 22.1802 103.711 21.8464 104.309 21.2522C104.907 20.6579 105.243 19.852 105.243 19.0116H102.054V22.1802Z" fill="#363A8B"/>
<path d="M108.432 19.0116H111.621V22.1802H108.432V19.0116Z" fill="#363A8B"/>
<path d="M6.37793 22.1802H9.56712V25.3488H6.37793V22.1802Z" fill="#363A8B"/>
<path d="M25.5131 22.1802H28.7023V25.3488H25.5131V22.1802Z" fill="#363A8B"/>
<path d="M31.8914 22.1802H35.0806V25.3488H31.8914V22.1802Z" fill="#363A8B"/>
<path d="M43.0536 22.1802C43.4765 22.1802 43.8821 22.3471 44.1812 22.6443C44.4802 22.9414 44.6482 23.3443 44.6482 23.7645C44.6482 24.1847 44.4802 24.5877 44.1812 24.8848C43.8821 25.1819 43.4765 25.3488 43.0536 25.3488C42.6307 25.3488 42.2251 25.1819 41.9261 24.8848C41.627 24.5877 41.459 24.1847 41.459 23.7645C41.459 23.3443 41.627 22.9414 41.9261 22.6443C42.2251 22.3471 42.6307 22.1802 43.0536 22.1802Z" fill="#363A8B"/>
<path d="M55.8104 22.1802C55.3874 22.1802 54.9819 22.3471 54.6828 22.6443C54.3838 22.9414 54.2158 23.3443 54.2158 23.7645C54.2158 24.1847 54.3838 24.5877 54.6828 24.8848C54.9819 25.1819 55.3874 25.3488 55.8104 25.3488H57.405V22.1802H55.8104Z" fill="#363A8B"/>
<path d="M57.405 22.1802H60.5941V25.3488H57.405V22.1802Z" fill="#363A8B"/>
<path d="M60.5941 22.1802H63.7833V25.3488H60.5941V22.1802Z" fill="#363A8B"/>
<path d="M63.7833 22.1802C64.6292 22.1802 65.4403 22.5141 66.0384 23.1083C66.6365 23.7025 66.9725 24.5085 66.9725 25.3488H63.7833V22.1802Z" fill="#363A8B"/>
<path d="M70.1617 22.1802H73.3509V25.3488H70.1617V22.1802Z" fill="#363A8B"/>
<path d="M76.5401 25.3488C76.5401 24.5085 76.8761 23.7025 77.4742 23.1083C78.0723 22.5141 78.8835 22.1802 79.7293 22.1802V25.3488H76.5401Z" fill="#363A8B"/>
<path d="M81.3239 22.1802C81.7468 22.1802 82.1524 22.3471 82.4514 22.6443C82.7505 22.9414 82.9185 23.3443 82.9185 23.7645C82.9185 24.1847 82.7505 24.5877 82.4514 24.8848C82.1524 25.1819 81.7468 25.3488 81.3239 25.3488H79.7293V22.1802H81.3239Z" fill="#363A8B"/>
<path d="M89.2968 22.1802H92.486V25.3488H89.2968V22.1802Z" fill="#363A8B"/>
<path d="M108.432 22.1802H111.621V25.3488H108.432V22.1802Z" fill="#363A8B"/>
<path d="M6.37793 25.3488C6.37793 26.1892 6.71393 26.9952 7.31202 27.5894C7.91011 28.1836 8.72129 28.5175 9.56712 28.5175V25.3488H6.37793Z" fill="#363A8B"/>
<path d="M9.56712 25.3488H12.7563V28.5175H9.56712V25.3488Z" fill="#363A8B"/>
<path d="M12.7563 25.3488H15.9455V28.5175H12.7563V25.3488Z" fill="#363A8B"/>
<path d="M15.9455 25.3488H19.1347V28.5175H15.9455V25.3488Z" fill="#363A8B"/>
<path d="M19.1347 25.3488H22.3239V28.5175H19.1347V25.3488Z" fill="#363A8B"/>
<path d="M22.3239 25.3488H25.5131V28.5175H22.3239V25.3488Z" fill="#363A8B"/>
<path d="M25.5131 28.5175C26.3589 28.5175 27.1701 28.1836 27.7682 27.5894C28.3663 26.9952 28.7023 26.1892 28.7023 25.3488H25.5131V28.5175Z" fill="#363A8B"/>
<path d="M31.8914 26.9331C31.8914 27.3533 32.0594 27.7563 32.3585 28.0534C32.6575 28.3505 33.0631 28.5175 33.486 28.5175C33.909 28.5175 34.3145 28.3505 34.6136 28.0534C34.9126 27.7563 35.0806 27.3533 35.0806 26.9331V25.3488H31.8914V26.9331Z" fill="#363A8B"/>
<path d="M38.2698 26.9331C38.2698 26.513 38.4378 26.11 38.7369 25.8129C39.0359 25.5158 39.4415 25.3488 39.8644 25.3488C40.2873 25.3488 40.6929 25.5158 40.992 25.8129C41.291 26.11 41.459 26.513 41.459 26.9331V28.5175H38.2698V26.9331Z" fill="#363A8B"/>
<path d="M46.2428 25.3488C46.6657 25.3488 47.0713 25.5158 47.3703 25.8129C47.6694 26.11 47.8374 26.513 47.8374 26.9331C47.8374 27.3533 47.6694 27.7563 47.3703 28.0534C47.0713 28.3505 46.6657 28.5175 46.2428 28.5175C45.8199 28.5175 45.4143 28.3505 45.1152 28.0534C44.8162 27.7563 44.6482 27.3533 44.6482 26.9331C44.6482 26.513 44.8162 26.11 45.1152 25.8129C45.4143 25.5158 45.8199 25.3488 46.2428 25.3488Z" fill="#363A8B"/>
<path d="M52.6212 25.3488C53.0441 25.3488 53.4497 25.5158 53.7487 25.8129C54.0478 26.11 54.2158 26.513 54.2158 26.9331C54.2158 27.3533 54.0478 27.7563 53.7487 28.0534C53.4497 28.3505 53.0441 28.5175 52.6212 28.5175C52.1983 28.5175 51.7927 28.3505 51.4936 28.0534C51.1946 27.7563 51.0266 27.3533 51.0266 26.9331C51.0266 26.513 51.1946 26.11 51.4936 25.8129C51.7927 25.5158 52.1983 25.3488 52.6212 25.3488Z" fill="#363A8B"/>
<path d="M57.405 25.3488H60.5941V28.5175H57.405V25.3488Z" fill="#363A8B"/>
<path d="M63.7833 26.9331C63.7833 27.3533 63.9513 27.7563 64.2504 28.0534C64.5494 28.3505 64.955 28.5175 65.3779 28.5175C65.8008 28.5175 66.2064 28.3505 66.5055 28.0534C66.8045 27.7563 66.9725 27.3533 66.9725 26.9331V25.3488H63.7833V26.9331Z" fill="#363A8B"/>
<path d="M70.1617 26.9331C70.1617 27.3533 70.3297 27.7563 70.6288 28.0534C70.9278 28.3505 71.3334 28.5175 71.7563 28.5175C72.1792 28.5175 72.5848 28.3505 72.8839 28.0534C73.1829 27.7563 73.3509 27.3533 73.3509 26.9331V25.3488H70.1617V26.9331Z" fill="#363A8B"/>
<path d="M76.5401 26.9331C76.5401 27.3533 76.7081 27.7563 77.0071 28.0534C77.3062 28.3505 77.7118 28.5175 78.1347 28.5175C78.5576 28.5175 78.9632 28.3505 79.2622 28.0534C79.5613 27.7563 79.7293 27.3533 79.7293 26.9331V25.3488H76.5401V26.9331Z" fill="#363A8B"/>
<path d="M82.9185 26.9331C82.9185 26.513 83.0865 26.11 83.3855 25.8129C83.6846 25.5158 84.0901 25.3488 84.5131 25.3488C84.936 25.3488 85.3416 25.5158 85.6406 25.8129C85.9397 26.11 86.1077 26.513 86.1077 26.9331V28.5175H82.9185V26.9331Z" fill="#363A8B"/>
<path d="M89.2968 25.3488C89.2968 26.1892 89.6328 26.9952 90.2309 27.5894C90.829 28.1836 91.6402 28.5175 92.486 28.5175V25.3488H89.2968Z" fill="#363A8B"/>
<path d="M92.486 25.3488H95.6752V28.5175H92.486V25.3488Z" fill="#363A8B"/>
<path d="M95.6752 25.3488H98.8644V28.5175H95.6752V25.3488Z" fill="#363A8B"/>
<path d="M98.8644 25.3488H102.054V28.5175H98.8644V25.3488Z" fill="#363A8B"/>
<path d="M102.054 25.3488H105.243V28.5175H102.054V25.3488Z" fill="#363A8B"/>
<path d="M105.243 25.3488H108.432V28.5175H105.243V25.3488Z" fill="#363A8B"/>
<path d="M108.432 28.5175C109.278 28.5175 110.089 28.1836 110.687 27.5894C111.285 26.9952 111.621 26.1892 111.621 25.3488H108.432V28.5175Z" fill="#363A8B"/>
<path d="M38.2698 28.5175H41.459V31.6861H38.2698V28.5175Z" fill="#363A8B"/>
<path d="M41.459 28.5175C42.3048 28.5175 43.116 28.8513 43.7141 29.4455C44.3122 30.0397 44.6482 30.8457 44.6482 31.6861H41.459V28.5175Z" fill="#363A8B"/>
<path d="M57.405 28.5175C57.405 29.3578 57.741 30.1638 58.3391 30.758C58.9371 31.3522 59.7483 31.6861 60.5941 31.6861V28.5175H57.405Z" fill="#363A8B"/>
<path d="M60.5941 28.5175C61.44 28.5175 62.2512 28.8513 62.8492 29.4455C63.4473 30.0397 63.7833 30.8457 63.7833 31.6861H60.5941V28.5175Z" fill="#363A8B"/>
<path d="M68.5671 28.5175C68.99 28.5175 69.3956 28.6844 69.6947 28.9815C69.9937 29.2786 70.1617 29.6816 70.1617 30.1018C70.1617 30.5219 69.9937 30.9249 69.6947 31.222C69.3956 31.5192 68.99 31.6861 68.5671 31.6861C68.1442 31.6861 67.7386 31.5192 67.4396 31.222C67.1405 30.9249 66.9725 30.5219 66.9725 30.1018C66.9725 29.6816 67.1405 29.2786 67.4396 28.9815C67.7386 28.6844 68.1442 28.5175 68.5671 28.5175Z" fill="#363A8B"/>
<path d="M74.9455 28.5175C75.3684 28.5175 75.774 28.6844 76.073 28.9815C76.3721 29.2786 76.5401 29.6816 76.5401 30.1018C76.5401 30.5219 76.3721 30.9249 76.073 31.222C75.774 31.5192 75.3684 31.6861 74.9455 31.6861C74.5226 31.6861 74.117 31.5192 73.8179 31.222C73.5189 30.9249 73.3509 30.5219 73.3509 30.1018C73.3509 29.6816 73.5189 29.2786 73.8179 28.9815C74.117 28.6844 74.5226 28.5175 74.9455 28.5175Z" fill="#363A8B"/>
<path d="M82.9185 28.5175H86.1077V31.6861H82.9185V28.5175Z" fill="#363A8B"/>
<path d="M15.9455 33.2704C15.9455 32.8502 16.1135 32.4472 16.4125 32.1501C16.7116 31.853 17.1172 31.6861 17.5401 31.6861C17.963 31.6861 18.3686 31.853 18.6676 32.1501C18.9667 32.4472 19.1347 32.8502 19.1347 33.2704V34.8547H15.9455V33.2704Z" fill="#363A8B"/>
<path d="M27.1077 31.6861C27.5306 31.6861 27.9362 31.853 28.2352 32.1501C28.5343 32.4472 28.7023 32.8502 28.7023 33.2704C28.7023 33.6906 28.5343 34.0935 28.2352 34.3907C27.9362 34.6878 27.5306 34.8547 27.1077 34.8547C26.6847 34.8547 26.2792 34.6878 25.9801 34.3907C25.6811 34.0935 25.5131 33.6906 25.5131 33.2704C25.5131 32.8502 25.6811 32.4472 25.9801 32.1501C26.2792 31.853 26.6847 31.6861 27.1077 31.6861Z" fill="#363A8B"/>
<path d="M38.2698 31.6861C38.2698 32.5264 38.6058 33.3324 39.2039 33.9266C39.802 34.5208 40.6132 34.8547 41.459 34.8547V31.6861H38.2698Z" fill="#363A8B"/>
<path d="M41.459 31.6861H44.6482V34.8547H41.459V31.6861Z" fill="#363A8B"/>
<path d="M54.2158 33.2704C54.2158 32.8502 54.3838 32.4472 54.6828 32.1501C54.9819 31.853 55.3874 31.6861 55.8104 31.6861C56.2333 31.6861 56.6389 31.853 56.9379 32.1501C57.237 32.4472 57.405 32.8502 57.405 33.2704V34.8547H54.2158V33.2704Z" fill="#363A8B"/>
<path d="M60.5941 31.6861C60.5941 32.5264 60.9302 33.3324 61.5282 33.9266C62.1263 34.5208 62.9375 34.8547 63.7833 34.8547V31.6861H60.5941Z" fill="#363A8B"/>
<path d="M63.7833 31.6861C64.6292 31.6861 65.4403 32.0199 66.0384 32.6141C66.6365 33.2084 66.9725 34.0143 66.9725 34.8547H63.7833V31.6861Z" fill="#363A8B"/>
<path d="M70.1617 33.2704C70.1617 32.8502 70.3297 32.4472 70.6288 32.1501C70.9278 31.853 71.3334 31.6861 71.7563 31.6861C72.1792 31.6861 72.5848 31.853 72.8839 32.1501C73.1829 32.4472 73.3509 32.8502 73.3509 33.2704V34.8547H70.1617V33.2704Z" fill="#363A8B"/>
<path d="M82.9185 31.6861H86.1077V34.8547H82.9185V31.6861Z" fill="#363A8B"/>
<path d="M94.0806 31.6861C93.6577 31.6861 93.2521 31.853 92.9531 32.1501C92.654 32.4472 92.486 32.8502 92.486 33.2704C92.486 33.6906 92.654 34.0935 92.9531 34.3907C93.2521 34.6878 93.6577 34.8547 94.0806 34.8547H95.6752V31.6861H94.0806Z" fill="#363A8B"/>
<path d="M95.6752 31.6861H98.8644V34.8547H95.6752V31.6861Z" fill="#363A8B"/>
<path d="M100.459 31.6861C100.882 31.6861 101.288 31.853 101.587 32.1501C101.886 32.4472 102.054 32.8502 102.054 33.2704C102.054 33.6906 101.886 34.0935 101.587 34.3907C101.288 34.6878 100.882 34.8547 100.459 34.8547H98.8644V31.6861H100.459Z" fill="#363A8B"/>
<path d="M105.243 34.8547C105.243 34.0143 105.579 33.2084 106.177 32.6141C106.775 32.0199 107.586 31.6861 108.432 31.6861V34.8547H105.243Z" fill="#363A8B"/>
<path d="M108.432 31.6861C109.278 31.6861 110.089 32.0199 110.687 32.6141C111.285 33.2084 111.621 34.0143 111.621 34.8547H108.432V31.6861Z" fill="#363A8B"/>
<path d="M14.3509 34.8547C13.928 34.8547 13.5224 35.0216 13.2234 35.3187C12.9243 35.6158 12.7563 36.0188 12.7563 36.439C12.7563 36.8592 12.9243 37.2621 13.2234 37.5593C13.5224 37.8564 13.928 38.0233 14.3509 38.0233H15.9455V34.8547H14.3509Z" fill="#363A8B"/>
<path d="M15.9455 34.8547H19.1347V38.0233H15.9455V34.8547Z" fill="#363A8B"/>
<path d="M20.7293 34.8547C21.1522 34.8547 21.5578 35.0216 21.8568 35.3187C22.1559 35.6158 22.3239 36.0188 22.3239 36.439C22.3239 36.8592 22.1559 37.2621 21.8568 37.5593C21.5578 37.8564 21.1522 38.0233 20.7293 38.0233H19.1347V34.8547H20.7293Z" fill="#363A8B"/>
<path d="M28.7023 36.439C28.7023 36.0188 28.8703 35.6158 29.1693 35.3187C29.4683 35.0216 29.8739 34.8547 30.2968 34.8547C30.7198 34.8547 31.1254 35.0216 31.4244 35.3187C31.7234 35.6158 31.8914 36.0188 31.8914 36.439V38.0233H28.7023V36.439Z" fill="#363A8B"/>
<path d="M35.0806 36.439C35.0806 36.0188 35.2486 35.6158 35.5477 35.3187C35.8467 35.0216 36.2523 34.8547 36.6752 34.8547C37.0981 34.8547 37.5037 35.0216 37.8028 35.3187C38.1018 35.6158 38.2698 36.0188 38.2698 36.439V38.0233H35.0806V36.439Z" fill="#363A8B"/>
<path d="M41.459 34.8547H44.6482V38.0233H41.459V34.8547Z" fill="#363A8B"/>
<path d="M46.2428 34.8547C46.6657 34.8547 47.0713 35.0216 47.3703 35.3187C47.6694 35.6158 47.8374 36.0188 47.8374 36.439C47.8374 36.8592 47.6694 37.2621 47.3703 37.5593C47.0713 37.8564 46.6657 38.0233 46.2428 38.0233H44.6482V34.8547H46.2428Z" fill="#363A8B"/>
<path d="M51.0266 38.0233C51.0266 37.1829 51.3626 36.377 51.9607 35.7827C52.5588 35.1885 53.3699 34.8547 54.2158 34.8547V38.0233H51.0266Z" fill="#363A8B"/>
<path d="M54.2158 34.8547H57.405V38.0233H54.2158V34.8547Z" fill="#363A8B"/>
<path d="M63.7833 34.8547C63.7833 35.695 64.1193 36.501 64.7174 37.0952C65.3155 37.6895 66.1267 38.0233 66.9725 38.0233V34.8547H63.7833Z" fill="#363A8B"/>
<path d="M66.9725 34.8547H70.1617V38.0233H66.9725V34.8547Z" fill="#363A8B"/>
<path d="M70.1617 34.8547H73.3509V38.0233H70.1617V34.8547Z" fill="#363A8B"/>
<path d="M73.3509 34.8547H76.5401V38.0233H73.3509V34.8547Z" fill="#363A8B"/>
<path d="M78.1347 34.8547C78.5576 34.8547 78.9632 35.0216 79.2622 35.3187C79.5613 35.6158 79.7293 36.0188 79.7293 36.439C79.7293 36.8592 79.5613 37.2621 79.2622 37.5593C78.9632 37.8564 78.5576 38.0233 78.1347 38.0233H76.5401V34.8547H78.1347Z" fill="#363A8B"/>
<path d="M82.9185 34.8547H86.1077V38.0233H82.9185V34.8547Z" fill="#363A8B"/>
<path d="M90.8914 34.8547C91.3144 34.8547 91.7199 35.0216 92.019 35.3187C92.318 35.6158 92.486 36.0188 92.486 36.439C92.486 36.8592 92.318 37.2621 92.019 37.5593C91.7199 37.8564 91.3144 38.0233 90.8914 38.0233C90.4685 38.0233 90.0629 37.8564 89.7639 37.5593C89.4648 37.2621 89.2968 36.8592 89.2968 36.439C89.2968 36.0188 89.4648 35.6158 89.7639 35.3187C90.0629 35.0216 90.4685 34.8547 90.8914 34.8547Z" fill="#363A8B"/>
<path d="M105.243 34.8547C105.243 35.695 105.579 36.501 106.177 37.0952C106.775 37.6895 107.586 38.0233 108.432 38.0233V34.8547H105.243Z" fill="#363A8B"/>
<path d="M108.432 34.8547H111.621V38.0233H108.432V34.8547Z" fill="#363A8B"/>
<path d="M6.37793 41.1919C6.37793 40.3515 6.71393 39.5456 7.31202 38.9514C7.91011 38.3571 8.72129 38.0233 9.56712 38.0233V41.1919H6.37793Z" fill="#363A8B"/>
<path d="M11.1617 38.0233C11.5846 38.0233 11.9902 38.1902 12.2893 38.4873C12.5883 38.7844 12.7563 39.1874 12.7563 39.6076C12.7563 40.0278 12.5883 40.4308 12.2893 40.7279C11.9902 41.025 11.5846 41.1919 11.1617 41.1919H9.56712V38.0233H11.1617Z" fill="#363A8B"/>
<path d="M15.9455 38.0233H19.1347V41.1919H15.9455V38.0233Z" fill="#363A8B"/>
<path d="M27.1077 38.0233C26.6847 38.0233 26.2792 38.1902 25.9801 38.4873C25.6811 38.7844 25.5131 39.1874 25.5131 39.6076C25.5131 40.0278 25.6811 40.4308 25.9801 40.7279C26.2792 41.025 26.6847 41.1919 27.1077 41.1919H28.7023V38.0233H27.1077Z" fill="#363A8B"/>
<path d="M28.7023 38.0233H31.8914V41.1919H28.7023V38.0233Z" fill="#363A8B"/>
<path d="M35.0806 38.0233H38.2698V41.1919H35.0806V38.0233Z" fill="#363A8B"/>
<path d="M41.459 38.0233H44.6482V41.1919H41.459V38.0233Z" fill="#363A8B"/>
<path d="M49.432 38.0233C49.0091 38.0233 48.6035 38.1902 48.3044 38.4873C48.0054 38.7844 47.8374 39.1874 47.8374 39.6076C47.8374 40.0278 48.0054 40.4308 48.3044 40.7279C48.6035 41.025 49.0091 41.1919 49.432 41.1919H51.0266V38.0233H49.432Z" fill="#363A8B"/>
<path d="M51.0266 38.0233H54.2158V41.1919H51.0266V38.0233Z" fill="#363A8B"/>
<path d="M54.2158 41.1919C55.0616 41.1919 55.8728 40.8581 56.4709 40.2638C57.069 39.6696 57.405 38.8637 57.405 38.0233H54.2158V41.1919Z" fill="#363A8B"/>
<path d="M60.5941 39.6076C60.5941 39.1874 60.7621 38.7844 61.0612 38.4873C61.3602 38.1902 61.7658 38.0233 62.1887 38.0233C62.6117 38.0233 63.0172 38.1902 63.3163 38.4873C63.6153 38.7844 63.7833 39.1874 63.7833 39.6076V41.1919H60.5941V39.6076Z" fill="#363A8B"/>
<path d="M66.9725 38.0233C66.9725 38.8637 67.3085 39.6696 67.9066 40.2638C68.5047 40.8581 69.3159 41.1919 70.1617 41.1919V38.0233H66.9725Z" fill="#363A8B"/>
<path d="M70.1617 38.0233H73.3509V41.1919H70.1617V38.0233Z" fill="#363A8B"/>
<path d="M82.9185 38.0233H86.1077V41.1919H82.9185V38.0233Z" fill="#363A8B"/>
<path d="M103.648 38.0233C104.071 38.0233 104.477 38.1902 104.776 38.4873C105.075 38.7844 105.243 39.1874 105.243 39.6076C105.243 40.0278 105.075 40.4308 104.776 40.7279C104.477 41.025 104.071 41.1919 103.648 41.1919C103.225 41.1919 102.82 41.025 102.521 40.7279C102.222 40.4308 102.054 40.0278 102.054 39.6076C102.054 39.1874 102.222 38.7844 102.521 38.4873C102.82 38.1902 103.225 38.0233 103.648 38.0233Z" fill="#363A8B"/>
<path d="M108.432 39.6076C108.432 40.0278 108.6 40.4308 108.899 40.7279C109.198 41.025 109.604 41.1919 110.027 41.1919C110.449 41.1919 110.855 41.025 111.154 40.7279C111.453 40.4308 111.621 40.0278 111.621 39.6076V38.0233H108.432V39.6076Z" fill="#363A8B"/>
<path d="M6.37793 42.7762C6.37793 43.1964 6.54593 43.5994 6.84498 43.8965C7.14402 44.1936 7.54961 44.3605 7.97252 44.3605C8.39544 44.3605 8.80103 44.1936 9.10007 43.8965C9.39912 43.5994 9.56712 43.1964 9.56712 42.7762V41.1919H6.37793V42.7762Z" fill="#363A8B"/>
<path d="M15.9455 41.1919C15.9455 42.0323 16.2815 42.8382 16.8796 43.4325C17.4777 44.0267 18.2889 44.3605 19.1347 44.3605V41.1919H15.9455Z" fill="#363A8B"/>
<path d="M19.1347 41.1919C19.9805 41.1919 20.7917 41.5257 21.3898 42.12C21.9879 42.7142 22.3239 43.5202 22.3239 44.3605H19.1347V41.1919Z" fill="#363A8B"/>
<path d="M28.7023 41.1919C28.7023 42.0323 29.0383 42.8382 29.6363 43.4325C30.2344 44.0267 31.0456 44.3605 31.8914 44.3605V41.1919H28.7023Z" fill="#363A8B"/>
<path d="M31.8914 41.1919H35.0806V44.3605H31.8914V41.1919Z" fill="#363A8B"/>
<path d="M35.0806 44.3605C35.9265 44.3605 36.7376 44.0267 37.3357 43.4325C37.9338 42.8382 38.2698 42.0323 38.2698 41.1919H35.0806V44.3605Z" fill="#363A8B"/>
<path d="M41.459 42.7762C41.459 43.1964 41.627 43.5994 41.9261 43.8965C42.2251 44.1936 42.6307 44.3605 43.0536 44.3605C43.4765 44.3605 43.8821 44.1936 44.1812 43.8965C44.4802 43.5994 44.6482 43.1964 44.6482 42.7762V41.1919H41.459V42.7762Z" fill="#363A8B"/>
<path d="M51.0266 42.7762C51.0266 43.1964 51.1946 43.5994 51.4936 43.8965C51.7927 44.1936 52.1983 44.3605 52.6212 44.3605C53.0441 44.3605 53.4497 44.1936 53.7487 43.8965C54.0478 43.5994 54.2158 43.1964 54.2158 42.7762V41.1919H51.0266V42.7762Z" fill="#363A8B"/>
<path d="M58.9995 41.1919C58.5766 41.1919 58.171 41.3588 57.872 41.6559C57.573 41.9531 57.405 42.356 57.405 42.7762C57.405 43.1964 57.573 43.5994 57.872 43.8965C58.171 44.1936 58.5766 44.3605 58.9995 44.3605H60.5941V41.1919H58.9995Z" fill="#363A8B"/>
<path d="M60.5941 41.1919H63.7833V44.3605H60.5941V41.1919Z" fill="#363A8B"/>
<path d="M65.3779 41.1919C65.8008 41.1919 66.2064 41.3588 66.5055 41.6559C66.8045 41.9531 66.9725 42.356 66.9725 42.7762C66.9725 43.1964 66.8045 43.5994 66.5055 43.8965C66.2064 44.1936 65.8008 44.3605 65.3779 44.3605H63.7833V41.1919H65.3779Z" fill="#363A8B"/>
<path d="M70.1617 41.1919C70.1617 42.0323 70.4977 42.8382 71.0958 43.4325C71.6939 44.0267 72.5051 44.3605 73.3509 44.3605V41.1919H70.1617Z" fill="#363A8B"/>
<path d="M73.3509 41.1919H76.5401V44.3605H73.3509V41.1919Z" fill="#363A8B"/>
<path d="M76.5401 41.1919H79.7293V44.3605H76.5401V41.1919Z" fill="#363A8B"/>
<path d="M79.7293 41.1919H82.9185V44.3605H79.7293V41.1919Z" fill="#363A8B"/>
<path d="M82.9185 41.1919H86.1077V44.3605H82.9185V41.1919Z" fill="#363A8B"/>
<path d="M86.1077 41.1919C86.9535 41.1919 87.7647 41.5257 88.3628 42.12C88.9608 42.7142 89.2968 43.5202 89.2968 44.3605H86.1077V41.1919Z" fill="#363A8B"/>
<path d="M100.459 41.1919C100.882 41.1919 101.288 41.3588 101.587 41.6559C101.886 41.9531 102.054 42.356 102.054 42.7762C102.054 43.1964 101.886 43.5994 101.587 43.8965C101.288 44.1936 100.882 44.3605 100.459 44.3605C100.036 44.3605 99.6305 44.1936 99.3315 43.8965C99.0324 43.5994 98.8644 43.1964 98.8644 42.7762C98.8644 42.356 99.0324 41.9531 99.3315 41.6559C99.6305 41.3588 100.036 41.1919 100.459 41.1919Z" fill="#363A8B"/>
<path d="M106.837 41.1919C107.26 41.1919 107.666 41.3588 107.965 41.6559C108.264 41.9531 108.432 42.356 108.432 42.7762C108.432 43.1964 108.264 43.5994 107.965 43.8965C107.666 44.1936 107.26 44.3605 106.837 44.3605C106.414 44.3605 106.009 44.1936 105.71 43.8965C105.411 43.5994 105.243 43.1964 105.243 42.7762C105.243 42.356 105.411 41.9531 105.71 41.6559C106.009 41.3588 106.414 41.1919 106.837 41.1919Z" fill="#363A8B"/>
<path d="M11.1617 44.3605C11.5846 44.3605 11.9902 44.5274 12.2893 44.8246C12.5883 45.1217 12.7563 45.5246 12.7563 45.9448C12.7563 46.365 12.5883 46.768 12.2893 47.0651C11.9902 47.3622 11.5846 47.5291 11.1617 47.5291C10.7388 47.5291 10.3332 47.3622 10.0342 47.0651C9.73512 46.768 9.56712 46.365 9.56712 45.9448C9.56712 45.5246 9.73512 45.1217 10.0342 44.8246C10.3332 44.5274 10.7388 44.3605 11.1617 44.3605Z" fill="#363A8B"/>
<path d="M19.1347 44.3605C19.1347 45.2009 19.4707 46.0068 20.0688 46.6011C20.6669 47.1953 21.478 47.5291 22.3239 47.5291V44.3605H19.1347Z" fill="#363A8B"/>
<path d="M22.3239 44.3605H25.5131V47.5291H22.3239V44.3605Z" fill="#363A8B"/>
<path d="M27.1077 44.3605C27.5306 44.3605 27.9362 44.5274 28.2352 44.8246C28.5343 45.1217 28.7023 45.5246 28.7023 45.9448C28.7023 46.365 28.5343 46.768 28.2352 47.0651C27.9362 47.3622 27.5306 47.5291 27.1077 47.5291H25.5131V44.3605H27.1077Z" fill="#363A8B"/>
<path d="M39.8644 44.3605C40.2873 44.3605 40.6929 44.5274 40.992 44.8246C41.291 45.1217 41.459 45.5246 41.459 45.9448C41.459 46.365 41.291 46.768 40.992 47.0651C40.6929 47.3622 40.2873 47.5291 39.8644 47.5291C39.4415 47.5291 39.0359 47.3622 38.7369 47.0651C38.4378 46.768 38.2698 46.365 38.2698 45.9448C38.2698 45.5246 38.4378 45.1217 38.7369 44.8246C39.0359 44.5274 39.4415 44.3605 39.8644 44.3605Z" fill="#363A8B"/>
<path d="M76.5401 44.3605C76.5401 45.2009 76.8761 46.0068 77.4742 46.6011C78.0723 47.1953 78.8835 47.5291 79.7293 47.5291V44.3605H76.5401Z" fill="#363A8B"/>
<path d="M79.7293 44.3605H82.9185V47.5291H79.7293V44.3605Z" fill="#363A8B"/>
<path d="M82.9185 44.3605H86.1077V47.5291H82.9185V44.3605Z" fill="#363A8B"/>
<path d="M86.1077 44.3605H89.2968V47.5291H86.1077V44.3605Z" fill="#363A8B"/>
<path d="M89.2968 44.3605C90.1427 44.3605 90.9539 44.6944 91.5519 45.2886C92.15 45.8828 92.486 46.6888 92.486 47.5291H89.2968V44.3605Z" fill="#363A8B"/>
<path d="M95.6752 45.9448C95.6752 45.5246 95.8432 45.1217 96.1423 44.8246C96.4413 44.5274 96.8469 44.3605 97.2698 44.3605C97.6927 44.3605 98.0983 44.5274 98.3974 44.8246C98.6964 45.1217 98.8644 45.5246 98.8644 45.9448V47.5291H95.6752V45.9448Z" fill="#363A8B"/>
<path d="M102.054 45.9448C102.054 45.5246 102.222 45.1217 102.521 44.8246C102.82 44.5274 103.225 44.3605 103.648 44.3605C104.071 44.3605 104.477 44.5274 104.776 44.8246C105.075 45.1217 105.243 45.5246 105.243 45.9448V47.5291H102.054V45.9448Z" fill="#363A8B"/>
<path d="M108.432 45.9448C108.432 45.5246 108.6 45.1217 108.899 44.8246C109.198 44.5274 109.604 44.3605 110.027 44.3605C110.449 44.3605 110.855 44.5274 111.154 44.8246C111.453 45.1217 111.621 45.5246 111.621 45.9448V47.5291H108.432V45.9448Z" fill="#363A8B"/>
<path d="M7.97252 47.5291C8.39544 47.5291 8.80103 47.6961 9.10007 47.9932C9.39912 48.2903 9.56712 48.6933 9.56712 49.1134C9.56712 49.5336 9.39912 49.9366 9.10007 50.2337C8.80103 50.5308 8.39544 50.6978 7.97252 50.6978C7.54961 50.6978 7.14402 50.5308 6.84498 50.2337C6.54593 49.9366 6.37793 49.5336 6.37793 49.1134C6.37793 48.6933 6.54593 48.2903 6.84498 47.9932C7.14402 47.6961 7.54961 47.5291 7.97252 47.5291Z" fill="#363A8B"/>
<path d="M22.3239 49.1134C22.3239 49.5336 22.4919 49.9366 22.7909 50.2337C23.09 50.5308 23.4956 50.6978 23.9185 50.6978C24.3414 50.6978 24.747 50.5308 25.046 50.2337C25.3451 49.9366 25.5131 49.5336 25.5131 49.1134V47.5291H22.3239V49.1134Z" fill="#363A8B"/>
<path d="M30.2968 47.5291C30.7198 47.5291 31.1254 47.6961 31.4244 47.9932C31.7234 48.2903 31.8914 48.6933 31.8914 49.1134C31.8914 49.5336 31.7234 49.9366 31.4244 50.2337C31.1254 50.5308 30.7198 50.6978 30.2968 50.6978C29.8739 50.6978 29.4683 50.5308 29.1693 50.2337C28.8703 49.9366 28.7023 49.5336 28.7023 49.1134C28.7023 48.6933 28.8703 48.2903 29.1693 47.9932C29.4683 47.6961 29.8739 47.5291 30.2968 47.5291Z" fill="#363A8B"/>
<path d="M35.0806 49.1134C35.0806 48.6933 35.2486 48.2903 35.5477 47.9932C35.8467 47.6961 36.2523 47.5291 36.6752 47.5291C37.0981 47.5291 37.5037 47.6961 37.8028 47.9932C38.1018 48.2903 38.2698 48.6933 38.2698 49.1134V50.6978H35.0806V49.1134Z" fill="#363A8B"/>
<path d="M89.2968 47.5291C89.2968 48.3695 89.6328 49.1755 90.2309 49.7697C90.829 50.3639 91.6402 50.6978 92.486 50.6978V47.5291H89.2968Z" fill="#363A8B"/>
<path d="M92.486 47.5291H95.6752V50.6978H92.486V47.5291Z" fill="#363A8B"/>
<path d="M95.6752 50.6978C96.521 50.6978 97.3322 50.3639 97.9303 49.7697C98.5284 49.1755 98.8644 48.3695 98.8644 47.5291H95.6752V50.6978Z" fill="#363A8B"/>
<path d="M102.054 47.5291H105.243V50.6978H102.054V47.5291Z" fill="#363A8B"/>
<path d="M108.432 49.1134C108.432 49.5336 108.6 49.9366 108.899 50.2337C109.198 50.5308 109.604 50.6978 110.027 50.6978C110.449 50.6978 110.855 50.5308 111.154 50.2337C111.453 49.9366 111.621 49.5336 111.621 49.1134V47.5291H108.432V49.1134Z" fill="#363A8B"/>
<path d="M9.56712 53.8664C9.56712 53.026 9.90312 52.22 10.5012 51.6258C11.0993 51.0316 11.9105 50.6978 12.7563 50.6978V53.8664H9.56712Z" fill="#363A8B"/>
<path d="M14.3509 50.6978C14.7738 50.6978 15.1794 50.8647 15.4785 51.1618C15.7775 51.4589 15.9455 51.8619 15.9455 52.2821C15.9455 52.7022 15.7775 53.1052 15.4785 53.4023C15.1794 53.6994 14.7738 53.8664 14.3509 53.8664H12.7563V50.6978H14.3509Z" fill="#363A8B"/>
<path d="M20.7293 50.6978C21.1522 50.6978 21.5578 50.8647 21.8568 51.1618C22.1559 51.4589 22.3239 51.8619 22.3239 52.2821C22.3239 52.7022 22.1559 53.1052 21.8568 53.4023C21.5578 53.6994 21.1522 53.8664 20.7293 53.8664C20.3064 53.8664 19.9008 53.6994 19.6017 53.4023C19.3027 53.1052 19.1347 52.7022 19.1347 52.2821C19.1347 51.8619 19.3027 51.4589 19.6017 51.1618C19.9008 50.8647 20.3064 50.6978 20.7293 50.6978Z" fill="#363A8B"/>
<path d="M27.1077 50.6978C27.5306 50.6978 27.9362 50.8647 28.2352 51.1618C28.5343 51.4589 28.7023 51.8619 28.7023 52.2821C28.7023 52.7022 28.5343 53.1052 28.2352 53.4023C27.9362 53.6994 27.5306 53.8664 27.1077 53.8664C26.6847 53.8664 26.2792 53.6994 25.9801 53.4023C25.6811 53.1052 25.5131 52.7022 25.5131 52.2821C25.5131 51.8619 25.6811 51.4589 25.9801 51.1618C26.2792 50.8647 26.6847 50.6978 27.1077 50.6978Z" fill="#363A8B"/>
<path d="M33.486 50.6978C33.0631 50.6978 32.6575 50.8647 32.3585 51.1618C32.0594 51.4589 31.8914 51.8619 31.8914 52.2821C31.8914 52.7022 32.0594 53.1052 32.3585 53.4023C32.6575 53.6994 33.0631 53.8664 33.486 53.8664H35.0806V50.6978H33.486Z" fill="#363A8B"/>
<path d="M35.0806 50.6978H38.2698V53.8664H35.0806V50.6978Z" fill="#363A8B"/>
<path d="M43.0536 50.6978C43.4765 50.6978 43.8821 50.8647 44.1812 51.1618C44.4802 51.4589 44.6482 51.8619 44.6482 52.2821C44.6482 52.7022 44.4802 53.1052 44.1812 53.4023C43.8821 53.6994 43.4765 53.8664 43.0536 53.8664C42.6307 53.8664 42.2251 53.6994 41.9261 53.4023C41.627 53.1052 41.459 52.7022 41.459 52.2821C41.459 51.8619 41.627 51.4589 41.9261 51.1618C42.2251 50.8647 42.6307 50.6978 43.0536 50.6978Z" fill="#363A8B"/>
<path d="M73.3509 52.2821C73.3509 51.8619 73.5189 51.4589 73.8179 51.1618C74.117 50.8647 74.5226 50.6978 74.9455 50.6978C75.3684 50.6978 75.774 50.8647 76.073 51.1618C76.3721 51.4589 76.5401 51.8619 76.5401 52.2821V53.8664H73.3509V52.2821Z" fill="#363A8B"/>
<path d="M79.7293 52.2821C79.7293 51.8619 79.8973 51.4589 80.1963 51.1618C80.4954 50.8647 80.901 50.6978 81.3239 50.6978C81.7468 50.6978 82.1524 50.8647 82.4514 51.1618C82.7505 51.4589 82.9185 51.8619 82.9185 52.2821V53.8664H79.7293V52.2821Z" fill="#363A8B"/>
<path d="M86.1077 52.2821C86.1077 51.8619 86.2757 51.4589 86.5747 51.1618C86.8737 50.8647 87.2793 50.6978 87.7023 50.6978C88.1252 50.6978 88.5308 50.8647 88.8298 51.1618C89.1288 51.4589 89.2968 51.8619 89.2968 52.2821V53.8664H86.1077V52.2821Z" fill="#363A8B"/>
<path d="M92.486 50.6978H95.6752V53.8664H92.486V50.6978Z" fill="#363A8B"/>
<path d="M100.459 50.6978C100.036 50.6978 99.6305 50.8647 99.3315 51.1618C99.0324 51.4589 98.8644 51.8619 98.8644 52.2821C98.8644 52.7022 99.0324 53.1052 99.3315 53.4023C99.6305 53.6994 100.036 53.8664 100.459 53.8664H102.054V50.6978H100.459Z" fill="#363A8B"/>
<path d="M102.054 50.6978H105.243V53.8664H102.054V50.6978Z" fill="#363A8B"/>
<path d="M106.837 50.6978C107.26 50.6978 107.666 50.8647 107.965 51.1618C108.264 51.4589 108.432 51.8619 108.432 52.2821C108.432 52.7022 108.264 53.1052 107.965 53.4023C107.666 53.6994 107.26 53.8664 106.837 53.8664H105.243V50.6978H106.837Z" fill="#363A8B"/>
<path d="M7.97252 53.8664C7.54961 53.8664 7.14402 54.0333 6.84498 54.3304C6.54593 54.6275 6.37793 55.0305 6.37793 55.4507C6.37793 55.8709 6.54593 56.2738 6.84498 56.5709C7.14402 56.8681 7.54961 57.035 7.97252 57.035H9.56712V53.8664H7.97252Z" fill="#363A8B"/>
<path d="M9.56712 53.8664H12.7563V57.035H9.56712V53.8664Z" fill="#363A8B"/>
<path d="M22.3239 55.4507C22.3239 55.0305 22.4919 54.6275 22.7909 54.3304C23.09 54.0333 23.4956 53.8664 23.9185 53.8664C24.3414 53.8664 24.747 54.0333 25.046 54.3304C25.3451 54.6275 25.5131 55.0305 25.5131 55.4507V57.035H22.3239V55.4507Z" fill="#363A8B"/>
<path d="M28.7023 55.4507C28.7023 55.0305 28.8703 54.6275 29.1693 54.3304C29.4683 54.0333 29.8739 53.8664 30.2968 53.8664C30.7198 53.8664 31.1254 54.0333 31.4244 54.3304C31.7234 54.6275 31.8914 55.0305 31.8914 55.4507V57.035H28.7023V55.4507Z" fill="#363A8B"/>
<path d="M35.0806 53.8664C35.0806 54.7067 35.4166 55.5127 36.0147 56.1069C36.6128 56.7011 37.424 57.035 38.2698 57.035V53.8664H35.0806Z" fill="#363A8B"/>
<path d="M38.2698 53.8664C39.1156 53.8664 39.9268 54.2002 40.5249 54.7944C41.123 55.3887 41.459 56.1946 41.459 57.035H38.2698V53.8664Z" fill="#363A8B"/>
<path d="M73.3509 53.8664H76.5401V57.035H73.3509V53.8664Z" fill="#363A8B"/>
<path d="M76.5401 53.8664H79.7293V57.035H76.5401V53.8664Z" fill="#363A8B"/>
<path d="M79.7293 53.8664H82.9185V57.035H79.7293V53.8664Z" fill="#363A8B"/>
<path d="M86.1077 53.8664C86.1077 54.7067 86.4437 55.5127 87.0418 56.1069C87.6398 56.7011 88.451 57.035 89.2968 57.035V53.8664H86.1077Z" fill="#363A8B"/>
<path d="M89.2968 53.8664H92.486V57.035H89.2968V53.8664Z" fill="#363A8B"/>
<path d="M92.486 53.8664H95.6752V57.035H92.486V53.8664Z" fill="#363A8B"/>
<path d="M9.56712 57.035H12.7563V60.2036H9.56712V57.035Z" fill="#363A8B"/>
<path d="M15.9455 58.6193C15.9455 58.1991 16.1135 57.7961 16.4125 57.499C16.7116 57.2019 17.1172 57.035 17.5401 57.035C17.963 57.035 18.3686 57.2019 18.6676 57.499C18.9667 57.7961 19.1347 58.1991 19.1347 58.6193V60.2036H15.9455V58.6193Z" fill="#363A8B"/>
<path d="M22.3239 57.035C22.3239 57.8753 22.6599 58.6813 23.258 59.2755C23.8561 59.8698 24.6672 60.2036 25.5131 60.2036V57.035H22.3239Z" fill="#363A8B"/>
<path d="M25.5131 57.035H28.7023V60.2036H25.5131V57.035Z" fill="#363A8B"/>
<path d="M28.7023 57.035H31.8914V60.2036H28.7023V57.035Z" fill="#363A8B"/>
<path d="M38.2698 57.035H41.459V60.2036H38.2698V57.035Z" fill="#363A8B"/>
<path d="M73.3509 57.035H76.5401V60.2036H73.3509V57.035Z" fill="#363A8B"/>
<path d="M79.7293 57.035H82.9185V60.2036H79.7293V57.035Z" fill="#363A8B"/>
<path d="M89.2968 57.035C89.2968 57.8753 89.6328 58.6813 90.2309 59.2755C90.829 59.8698 91.6402 60.2036 92.486 60.2036V57.035H89.2968Z" fill="#363A8B"/>
<path d="M92.486 57.035H95.6752V60.2036H92.486V57.035Z" fill="#363A8B"/>
<path d="M97.2698 57.035C97.6927 57.035 98.0983 57.2019 98.3974 57.499C98.6964 57.7961 98.8644 58.1991 98.8644 58.6193C98.8644 59.0395 98.6964 59.4424 98.3974 59.7396C98.0983 60.0367 97.6927 60.2036 97.2698 60.2036H95.6752V57.035H97.2698Z" fill="#363A8B"/>
<path d="M6.37793 63.3722C6.37793 62.5318 6.71393 61.7259 7.31202 61.1317C7.91011 60.5374 8.72129 60.2036 9.56712 60.2036V63.3722H6.37793Z" fill="#363A8B"/>
<path d="M9.56712 60.2036H12.7563V63.3722H9.56712V60.2036Z" fill="#363A8B"/>
<path d="M15.9455 61.7879C15.9455 62.2081 16.1135 62.6111 16.4125 62.9082C16.7116 63.2053 17.1172 63.3722 17.5401 63.3722C17.963 63.3722 18.3686 63.2053 18.6676 62.9082C18.9667 62.6111 19.1347 62.2081 19.1347 61.7879V60.2036H15.9455V61.7879Z" fill="#363A8B"/>
<path d="M28.7023 60.2036C28.7023 61.044 29.0383 61.8499 29.6363 62.4441C30.2344 63.0384 31.0456 63.3722 31.8914 63.3722V60.2036H28.7023Z" fill="#363A8B"/>
<path d="M31.8914 60.2036H35.0806V63.3722H31.8914V60.2036Z" fill="#363A8B"/>
<path d="M35.0806 60.2036H38.2698V63.3722H35.0806V60.2036Z" fill="#363A8B"/>
<path d="M38.2698 60.2036H41.459V63.3722H38.2698V60.2036Z" fill="#363A8B"/>
<path d="M73.3509 60.2036H76.5401V63.3722H73.3509V60.2036Z" fill="#363A8B"/>
<path d="M79.7293 61.7879C79.7293 62.2081 79.8973 62.6111 80.1963 62.9082C80.4954 63.2053 80.901 63.3722 81.3239 63.3722C81.7468 63.3722 82.1524 63.2053 82.4514 62.9082C82.7505 62.6111 82.9185 62.2081 82.9185 61.7879V60.2036H79.7293V61.7879Z" fill="#363A8B"/>
<path d="M86.1077 61.7879C86.1077 61.3677 86.2757 60.9647 86.5747 60.6676C86.8737 60.3705 87.2793 60.2036 87.7023 60.2036C88.1252 60.2036 88.5308 60.3705 88.8298 60.6676C89.1288 60.9647 89.2968 61.3677 89.2968 61.7879V63.3722H86.1077V61.7879Z" fill="#363A8B"/>
<path d="M102.054 63.3722C102.054 62.5318 102.39 61.7259 102.988 61.1317C103.586 60.5374 104.397 60.2036 105.243 60.2036V63.3722H102.054Z" fill="#363A8B"/>
<path d="M105.243 60.2036C106.089 60.2036 106.9 60.5374 107.498 61.1317C108.096 61.7259 108.432 62.5318 108.432 63.3722H105.243V60.2036Z" fill="#363A8B"/>
<path d="M6.37793 63.3722C6.37793 64.2126 6.71393 65.0185 7.31202 65.6128C7.91011 66.207 8.72129 66.5408 9.56712 66.5408V63.3722H6.37793Z" fill="#363A8B"/>
<path d="M9.56712 66.5408C10.4129 66.5408 11.2241 66.207 11.8222 65.6128C12.4203 65.0185 12.7563 64.2126 12.7563 63.3722H9.56712V66.5408Z" fill="#363A8B"/>
<path d="M22.3239 66.5408C22.3239 65.7004 22.6599 64.8945 23.258 64.3003C23.8561 63.706 24.6672 63.3722 25.5131 63.3722V66.5408H22.3239Z" fill="#363A8B"/>
<path d="M27.1077 63.3722C27.5306 63.3722 27.9362 63.5391 28.2352 63.8362C28.5343 64.1334 28.7023 64.5363 28.7023 64.9565C28.7023 65.3767 28.5343 65.7797 28.2352 66.0768C27.9362 66.3739 27.5306 66.5408 27.1077 66.5408H25.5131V63.3722H27.1077Z" fill="#363A8B"/>
<path d="M31.8914 64.9565C31.8914 65.3767 32.0594 65.7797 32.3585 66.0768C32.6575 66.3739 33.0631 66.5408 33.486 66.5408C33.909 66.5408 34.3145 66.3739 34.6136 66.0768C34.9126 65.7797 35.0806 65.3767 35.0806 64.9565V63.3722H31.8914V64.9565Z" fill="#363A8B"/>
<path d="M38.2698 64.9565C38.2698 65.3767 38.4378 65.7797 38.7369 66.0768C39.0359 66.3739 39.4415 66.5408 39.8644 66.5408C40.2873 66.5408 40.6929 66.3739 40.992 66.0768C41.291 65.7797 41.459 65.3767 41.459 64.9565V63.3722H38.2698V64.9565Z" fill="#363A8B"/>
<path d="M73.3509 63.3722H76.5401V66.5408H73.3509V63.3722Z" fill="#363A8B"/>
<path d="M86.1077 64.9565C86.1077 65.3767 86.2757 65.7797 86.5747 66.0768C86.8737 66.3739 87.2793 66.5408 87.7023 66.5408C88.1252 66.5408 88.5308 66.3739 88.8298 66.0768C89.1288 65.7797 89.2968 65.3767 89.2968 64.9565V63.3722H86.1077V64.9565Z" fill="#363A8B"/>
<path d="M92.486 66.5408C92.486 65.7004 92.822 64.8945 93.4201 64.3003C94.0182 63.706 94.8294 63.3722 95.6752 63.3722V66.5408H92.486Z" fill="#363A8B"/>
<path d="M97.2698 63.3722C97.6927 63.3722 98.0983 63.5391 98.3974 63.8362C98.6964 64.1334 98.8644 64.5363 98.8644 64.9565C98.8644 65.3767 98.6964 65.7797 98.3974 66.0768C98.0983 66.3739 97.6927 66.5408 97.2698 66.5408H95.6752V63.3722H97.2698Z" fill="#363A8B"/>
<path d="M102.054 63.3722C102.054 64.2126 102.39 65.0185 102.988 65.6128C103.586 66.207 104.397 66.5408 105.243 66.5408V63.3722H102.054Z" fill="#363A8B"/>
<path d="M105.243 63.3722H108.432V66.5408H105.243V63.3722Z" fill="#363A8B"/>
<path d="M110.027 63.3722C110.449 63.3722 110.855 63.5391 111.154 63.8362C111.453 64.1334 111.621 64.5363 111.621 64.9565C111.621 65.3767 111.453 65.7797 111.154 66.0768C110.855 66.3739 110.449 66.5408 110.027 66.5408H108.432V63.3722H110.027Z" fill="#363A8B"/>
<path d="M12.7563 69.7094C12.7563 68.8691 13.0923 68.0631 13.6904 67.4689C14.2885 66.8747 15.0997 66.5408 15.9455 66.5408V69.7094H12.7563Z" fill="#363A8B"/>
<path d="M15.9455 66.5408H19.1347V69.7094H15.9455V66.5408Z" fill="#363A8B"/>
<path d="M19.1347 66.5408H22.3239V69.7094H19.1347V66.5408Z" fill="#363A8B"/>
<path d="M22.3239 69.7094C23.1697 69.7094 23.9809 69.3756 24.579 68.7814C25.1771 68.1871 25.5131 67.3812 25.5131 66.5408H22.3239V69.7094Z" fill="#363A8B"/>
<path d="M30.2968 66.5408C30.7198 66.5408 31.1254 66.7077 31.4244 67.0048C31.7234 67.302 31.8914 67.7049 31.8914 68.1251C31.8914 68.5453 31.7234 68.9483 31.4244 69.2454C31.1254 69.5425 30.7198 69.7094 30.2968 69.7094C29.8739 69.7094 29.4683 69.5425 29.1693 69.2454C28.8703 68.9483 28.7023 68.5453 28.7023 68.1251C28.7023 67.7049 28.8703 67.302 29.1693 67.0048C29.4683 66.7077 29.8739 66.5408 30.2968 66.5408Z" fill="#363A8B"/>
<path d="M73.3509 66.5408H76.5401V69.7094H73.3509V66.5408Z" fill="#363A8B"/>
<path d="M89.2968 69.7094C89.2968 68.8691 89.6328 68.0631 90.2309 67.4689C90.829 66.8747 91.6402 66.5408 92.486 66.5408V69.7094H89.2968Z" fill="#363A8B"/>
<path d="M92.486 69.7094C93.3319 69.7094 94.143 69.3756 94.7411 68.7814C95.3392 68.1871 95.6752 67.3812 95.6752 66.5408H92.486V69.7094Z" fill="#363A8B"/>
<path d="M105.243 66.5408H108.432V69.7094H105.243V66.5408Z" fill="#363A8B"/>
<path d="M12.7563 69.7094H15.9455V72.878H12.7563V69.7094Z" fill="#363A8B"/>
<path d="M27.1077 69.7094C27.5306 69.7094 27.9362 69.8764 28.2352 70.1735C28.5343 70.4706 28.7023 70.8736 28.7023 71.2937C28.7023 71.7139 28.5343 72.1169 28.2352 72.414C27.9362 72.7111 27.5306 72.878 27.1077 72.878C26.6847 72.878 26.2792 72.7111 25.9801 72.414C25.6811 72.1169 25.5131 71.7139 25.5131 71.2937C25.5131 70.8736 25.6811 70.4706 25.9801 70.1735C26.2792 69.8764 26.6847 69.7094 27.1077 69.7094Z" fill="#363A8B"/>
<path d="M31.8914 71.2937C31.8914 70.8736 32.0594 70.4706 32.3585 70.1735C32.6575 69.8764 33.0631 69.7094 33.486 69.7094C33.909 69.7094 34.3145 69.8764 34.6136 70.1735C34.9126 70.4706 35.0806 70.8736 35.0806 71.2937V72.878H31.8914V71.2937Z" fill="#363A8B"/>
<path d="M39.8644 69.7094C39.4415 69.7094 39.0359 69.8764 38.7369 70.1735C38.4378 70.4706 38.2698 70.8736 38.2698 71.2937C38.2698 71.7139 38.4378 72.1169 38.7369 72.414C39.0359 72.7111 39.4415 72.878 39.8644 72.878H41.459V69.7094H39.8644Z" fill="#363A8B"/>
<path d="M43.0536 69.7094C43.4765 69.7094 43.8821 69.8764 44.1812 70.1735C44.4802 70.4706 44.6482 70.8736 44.6482 71.2937C44.6482 71.7139 44.4802 72.1169 44.1812 72.414C43.8821 72.7111 43.4765 72.878 43.0536 72.878H41.459V69.7094H43.0536Z" fill="#363A8B"/>
<path d="M73.3509 69.7094H76.5401V72.878H73.3509V69.7094Z" fill="#363A8B"/>
<path d="M79.7293 71.2937C79.7293 70.8736 79.8973 70.4706 80.1963 70.1735C80.4954 69.8764 80.901 69.7094 81.3239 69.7094C81.7468 69.7094 82.1524 69.8764 82.4514 70.1735C82.7505 70.4706 82.9185 70.8736 82.9185 71.2937V72.878H79.7293V71.2937Z" fill="#363A8B"/>
<path d="M86.1077 72.878C86.1077 72.0377 86.4437 71.2317 87.0418 70.6375C87.6398 70.0433 88.451 69.7094 89.2968 69.7094V72.878H86.1077Z" fill="#363A8B"/>
<path d="M89.2968 72.878C90.1427 72.878 90.9539 72.5442 91.5519 71.95C92.15 71.3557 92.486 70.5498 92.486 69.7094H89.2968V72.878Z" fill="#363A8B"/>
<path d="M105.243 71.2937C105.243 71.7139 105.411 72.1169 105.71 72.414C106.009 72.7111 106.414 72.878 106.837 72.878C107.26 72.878 107.666 72.7111 107.965 72.414C108.264 72.1169 108.432 71.7139 108.432 71.2937V69.7094H105.243V71.2937Z" fill="#363A8B"/>
<path d="M12.7563 72.878H15.9455V76.0467H12.7563V72.878Z" fill="#363A8B"/>
<path d="M15.9455 72.878C16.7913 72.878 17.6025 73.2119 18.2006 73.8061C18.7987 74.4003 19.1347 75.2063 19.1347 76.0467H15.9455V72.878Z" fill="#363A8B"/>
<path d="M23.9185 72.878C24.3414 72.878 24.747 73.045 25.046 73.3421C25.3451 73.6392 25.5131 74.0422 25.5131 74.4624C25.5131 74.8825 25.3451 75.2855 25.046 75.5826C24.747 75.8797 24.3414 76.0467 23.9185 76.0467C23.4956 76.0467 23.09 75.8797 22.7909 75.5826C22.4919 75.2855 22.3239 74.8825 22.3239 74.4624C22.3239 74.0422 22.4919 73.6392 22.7909 73.3421C23.09 73.045 23.4956 72.878 23.9185 72.878Z" fill="#363A8B"/>
<path d="M30.2968 72.878C29.8739 72.878 29.4683 73.045 29.1693 73.3421C28.8703 73.6392 28.7023 74.0422 28.7023 74.4624C28.7023 74.8825 28.8703 75.2855 29.1693 75.5826C29.4683 75.8797 29.8739 76.0467 30.2968 76.0467H31.8914V72.878H30.2968Z" fill="#363A8B"/>
<path d="M31.8914 72.878H35.0806V76.0467H31.8914V72.878Z" fill="#363A8B"/>
<path d="M35.0806 72.878C35.9265 72.878 36.7376 73.2119 37.3357 73.8061C37.9338 74.4003 38.2698 75.2063 38.2698 76.0467H35.0806V72.878Z" fill="#363A8B"/>
<path d="M44.6482 74.4624C44.6482 74.0422 44.8162 73.6392 45.1152 73.3421C45.4143 73.045 45.8199 72.878 46.2428 72.878C46.6657 72.878 47.0713 73.045 47.3703 73.3421C47.6694 73.6392 47.8374 74.0422 47.8374 74.4624V76.0467H44.6482V74.4624Z" fill="#363A8B"/>
<path d="M52.6212 72.878C53.0441 72.878 53.4497 73.045 53.7487 73.3421C54.0478 73.6392 54.2158 74.0422 54.2158 74.4624C54.2158 74.8825 54.0478 75.2855 53.7487 75.5826C53.4497 75.8797 53.0441 76.0467 52.6212 76.0467C52.1983 76.0467 51.7927 75.8797 51.4936 75.5826C51.1946 75.2855 51.0266 74.8825 51.0266 74.4624C51.0266 74.0422 51.1946 73.6392 51.4936 73.3421C51.7927 73.045 52.1983 72.878 52.6212 72.878Z" fill="#363A8B"/>
<path d="M60.5941 76.0467C60.5941 75.2063 60.9302 74.4003 61.5282 73.8061C62.1263 73.2119 62.9375 72.878 63.7833 72.878V76.0467H60.5941Z" fill="#363A8B"/>
<path d="M63.7833 72.878C64.6292 72.878 65.4403 73.2119 66.0384 73.8061C66.6365 74.4003 66.9725 75.2063 66.9725 76.0467H63.7833V72.878Z" fill="#363A8B"/>
<path d="M73.3509 72.878H76.5401V76.0467H73.3509V72.878Z" fill="#363A8B"/>
<path d="M79.7293 74.4624C79.7293 74.8825 79.8973 75.2855 80.1963 75.5826C80.4954 75.8797 80.901 76.0467 81.3239 76.0467C81.7468 76.0467 82.1524 75.8797 82.4514 75.5826C82.7505 75.2855 82.9185 74.8825 82.9185 74.4624V72.878H79.7293V74.4624Z" fill="#363A8B"/>
<path d="M86.1077 72.878H89.2968V76.0467H86.1077V72.878Z" fill="#363A8B"/>
<path d="M94.0806 72.878C94.5035 72.878 94.9091 73.045 95.2082 73.3421C95.5072 73.6392 95.6752 74.0422 95.6752 74.4624C95.6752 74.8825 95.5072 75.2855 95.2082 75.5826C94.9091 75.8797 94.5035 76.0467 94.0806 76.0467C93.6577 76.0467 93.2521 75.8797 92.9531 75.5826C92.654 75.2855 92.486 74.8825 92.486 74.4624C92.486 74.0422 92.654 73.6392 92.9531 73.3421C93.2521 73.045 93.6577 72.878 94.0806 72.878Z" fill="#363A8B"/>
<path d="M98.8644 76.0467C98.8644 75.2063 99.2004 74.4003 99.7985 73.8061C100.397 73.2119 101.208 72.878 102.054 72.878V76.0467H98.8644Z" fill="#363A8B"/>
<path d="M102.054 72.878C102.899 72.878 103.711 73.2119 104.309 73.8061C104.907 74.4003 105.243 75.2063 105.243 76.0467H102.054V72.878Z" fill="#363A8B"/>
<path d="M108.432 74.4624C108.432 74.0422 108.6 73.6392 108.899 73.3421C109.198 73.045 109.604 72.878 110.027 72.878C110.449 72.878 110.855 73.045 111.154 73.3421C111.453 73.6392 111.621 74.0422 111.621 74.4624V76.0467H108.432V74.4624Z" fill="#363A8B"/>
<path d="M7.97252 76.0467C7.54961 76.0467 7.14402 76.2136 6.84498 76.5107C6.54593 76.8078 6.37793 77.2108 6.37793 77.631C6.37793 78.0512 6.54593 78.4541 6.84498 78.7512C7.14402 79.0484 7.54961 79.2153 7.97252 79.2153H9.56712V76.0467H7.97252Z" fill="#363A8B"/>
<path d="M9.56712 76.0467H12.7563V79.2153H9.56712V76.0467Z" fill="#363A8B"/>
<path d="M12.7563 76.0467H15.9455V79.2153H12.7563V76.0467Z" fill="#363A8B"/>
<path d="M15.9455 76.0467H19.1347V79.2153H15.9455V76.0467Z" fill="#363A8B"/>
<path d="M19.1347 76.0467C19.9805 76.0467 20.7917 76.3805 21.3898 76.9747C21.9879 77.569 22.3239 78.3749 22.3239 79.2153H19.1347V76.0467Z" fill="#363A8B"/>
<path d="M27.1077 76.0467C27.5306 76.0467 27.9362 76.2136 28.2352 76.5107C28.5343 76.8078 28.7023 77.2108 28.7023 77.631C28.7023 78.0512 28.5343 78.4541 28.2352 78.7512C27.9362 79.0484 27.5306 79.2153 27.1077 79.2153C26.6847 79.2153 26.2792 79.0484 25.9801 78.7512C25.6811 78.4541 25.5131 78.0512 25.5131 77.631C25.5131 77.2108 25.6811 76.8078 25.9801 76.5107C26.2792 76.2136 26.6847 76.0467 27.1077 76.0467Z" fill="#363A8B"/>
<path d="M35.0806 76.0467C35.0806 76.887 35.4166 77.693 36.0147 78.2872C36.6128 78.8814 37.424 79.2153 38.2698 79.2153V76.0467H35.0806Z" fill="#363A8B"/>
<path d="M39.8644 76.0467C40.2873 76.0467 40.6929 76.2136 40.992 76.5107C41.291 76.8078 41.459 77.2108 41.459 77.631C41.459 78.0512 41.291 78.4541 40.992 78.7512C40.6929 79.0484 40.2873 79.2153 39.8644 79.2153H38.2698V76.0467H39.8644Z" fill="#363A8B"/>
<path d="M44.6482 77.631C44.6482 78.0512 44.8162 78.4541 45.1152 78.7512C45.4143 79.0484 45.8199 79.2153 46.2428 79.2153C46.6657 79.2153 47.0713 79.0484 47.3703 78.7512C47.6694 78.4541 47.8374 78.0512 47.8374 77.631V76.0467H44.6482V77.631Z" fill="#363A8B"/>
<path d="M58.9995 76.0467C58.5766 76.0467 58.171 76.2136 57.872 76.5107C57.573 76.8078 57.405 77.2108 57.405 77.631C57.405 78.0512 57.573 78.4541 57.872 78.7512C58.171 79.0484 58.5766 79.2153 58.9995 79.2153H60.5941V76.0467H58.9995Z" fill="#363A8B"/>
<path d="M60.5941 76.0467H63.7833V79.2153H60.5941V76.0467Z" fill="#363A8B"/>
<path d="M63.7833 76.0467H66.9725V79.2153H63.7833V76.0467Z" fill="#363A8B"/>
<path d="M66.9725 76.0467C67.8183 76.0467 68.6295 76.3805 69.2276 76.9747C69.8257 77.569 70.1617 78.3749 70.1617 79.2153H66.9725V76.0467Z" fill="#363A8B"/>
<path d="M73.3509 76.0467H76.5401V79.2153H73.3509V76.0467Z" fill="#363A8B"/>
<path d="M86.1077 76.0467H89.2968V79.2153H86.1077V76.0467Z" fill="#363A8B"/>
<path d="M89.2968 76.0467C90.1427 76.0467 90.9539 76.3805 91.5519 76.9747C92.15 77.569 92.486 78.3749 92.486 79.2153H89.2968V76.0467Z" fill="#363A8B"/>
<path d="M98.8644 76.0467H102.054V79.2153H98.8644V76.0467Z" fill="#363A8B"/>
<path d="M102.054 79.2153C102.899 79.2153 103.711 78.8814 104.309 78.2872C104.907 77.693 105.243 76.887 105.243 76.0467H102.054V79.2153Z" fill="#363A8B"/>
<path d="M108.432 76.0467H111.621V79.2153H108.432V76.0467Z" fill="#363A8B"/>
<path d="M9.56712 80.7996C9.56712 81.2198 9.73512 81.6227 10.0342 81.9199C10.3332 82.217 10.7388 82.3839 11.1617 82.3839C11.5846 82.3839 11.9902 82.217 12.2893 81.9199C12.5883 81.6227 12.7563 81.2198 12.7563 80.7996V79.2153H9.56712V80.7996Z" fill="#363A8B"/>
<path d="M15.9455 79.2153C15.9455 80.0556 16.2815 80.8616 16.8796 81.4558C17.4777 82.0501 18.2889 82.3839 19.1347 82.3839V79.2153H15.9455Z" fill="#363A8B"/>
<path d="M19.1347 79.2153H22.3239V82.3839H19.1347V79.2153Z" fill="#363A8B"/>
<path d="M22.3239 79.2153C23.1697 79.2153 23.9809 79.5491 24.579 80.1433C25.1771 80.7376 25.5131 81.5435 25.5131 82.3839H22.3239V79.2153Z" fill="#363A8B"/>
<path d="M30.2968 79.2153C30.7198 79.2153 31.1254 79.3822 31.4244 79.6793C31.7234 79.9764 31.8914 80.3794 31.8914 80.7996C31.8914 81.2198 31.7234 81.6227 31.4244 81.9199C31.1254 82.217 30.7198 82.3839 30.2968 82.3839C29.8739 82.3839 29.4683 82.217 29.1693 81.9199C28.8703 81.6227 28.7023 81.2198 28.7023 80.7996C28.7023 80.3794 28.8703 79.9764 29.1693 79.6793C29.4683 79.3822 29.8739 79.2153 30.2968 79.2153Z" fill="#363A8B"/>
<path d="M41.459 80.7996C41.459 80.3794 41.627 79.9764 41.9261 79.6793C42.2251 79.3822 42.6307 79.2153 43.0536 79.2153C43.4765 79.2153 43.8821 79.3822 44.1812 79.6793C44.4802 79.9764 44.6482 80.3794 44.6482 80.7996V82.3839H41.459V80.7996Z" fill="#363A8B"/>
<path d="M60.5941 79.2153C60.5941 80.0556 60.9302 80.8616 61.5282 81.4558C62.1263 82.0501 62.9375 82.3839 63.7833 82.3839V79.2153H60.5941Z" fill="#363A8B"/>
<path d="M63.7833 79.2153H66.9725V82.3839H63.7833V79.2153Z" fill="#363A8B"/>
<path d="M66.9725 79.2153H70.1617V82.3839H66.9725V79.2153Z" fill="#363A8B"/>
<path d="M70.1617 79.2153H73.3509V82.3839H70.1617V79.2153Z" fill="#363A8B"/>
<path d="M73.3509 79.2153H76.5401V82.3839H73.3509V79.2153Z" fill="#363A8B"/>
<path d="M86.1077 79.2153H89.2968V82.3839H86.1077V79.2153Z" fill="#363A8B"/>
<path d="M89.2968 79.2153H92.486V82.3839H89.2968V79.2153Z" fill="#363A8B"/>
<path d="M98.8644 79.2153H102.054V82.3839H98.8644V79.2153Z" fill="#363A8B"/>
<path d="M108.432 79.2153H111.621V82.3839H108.432V79.2153Z" fill="#363A8B"/>
<path d="M7.97252 82.3839C8.39544 82.3839 8.80103 82.5508 9.10007 82.8479C9.39912 83.145 9.56712 83.548 9.56712 83.9682C9.56712 84.3884 9.39912 84.7914 9.10007 85.0885C8.80103 85.3856 8.39544 85.5525 7.97252 85.5525C7.54961 85.5525 7.14402 85.3856 6.84498 85.0885C6.54593 84.7914 6.37793 84.3884 6.37793 83.9682C6.37793 83.548 6.54593 83.145 6.84498 82.8479C7.14402 82.5508 7.54961 82.3839 7.97252 82.3839Z" fill="#363A8B"/>
<path d="M14.3509 82.3839C14.7738 82.3839 15.1794 82.5508 15.4785 82.8479C15.7775 83.145 15.9455 83.548 15.9455 83.9682C15.9455 84.3884 15.7775 84.7914 15.4785 85.0885C15.1794 85.3856 14.7738 85.5525 14.3509 85.5525C13.928 85.5525 13.5224 85.3856 13.2234 85.0885C12.9243 84.7914 12.7563 84.3884 12.7563 83.9682C12.7563 83.548 12.9243 83.145 13.2234 82.8479C13.5224 82.5508 13.928 82.3839 14.3509 82.3839Z" fill="#363A8B"/>
<path d="M19.1347 82.3839C19.1347 83.2243 19.4707 84.0302 20.0688 84.6244C20.6669 85.2187 21.478 85.5525 22.3239 85.5525V82.3839H19.1347Z" fill="#363A8B"/>
<path d="M22.3239 82.3839H25.5131V85.5525H22.3239V82.3839Z" fill="#363A8B"/>
<path d="M27.1077 82.3839C27.5306 82.3839 27.9362 82.5508 28.2352 82.8479C28.5343 83.145 28.7023 83.548 28.7023 83.9682C28.7023 84.3884 28.5343 84.7914 28.2352 85.0885C27.9362 85.3856 27.5306 85.5525 27.1077 85.5525H25.5131V82.3839H27.1077Z" fill="#363A8B"/>
<path d="M36.6752 82.3839C37.0981 82.3839 37.5037 82.5508 37.8028 82.8479C38.1018 83.145 38.2698 83.548 38.2698 83.9682C38.2698 84.3884 38.1018 84.7914 37.8028 85.0885C37.5037 85.3856 37.0981 85.5525 36.6752 85.5525C36.2523 85.5525 35.8467 85.3856 35.5477 85.0885C35.2486 84.7914 35.0806 84.3884 35.0806 83.9682C35.0806 83.548 35.2486 83.145 35.5477 82.8479C35.8467 82.5508 36.2523 82.3839 36.6752 82.3839Z" fill="#363A8B"/>
<path d="M41.459 82.3839C41.459 83.2243 41.795 84.0302 42.3931 84.6244C42.9912 85.2187 43.8024 85.5525 44.6482 85.5525V82.3839H41.459Z" fill="#363A8B"/>
<path d="M46.2428 82.3839C46.6657 82.3839 47.0713 82.5508 47.3703 82.8479C47.6694 83.145 47.8374 83.548 47.8374 83.9682C47.8374 84.3884 47.6694 84.7914 47.3703 85.0885C47.0713 85.3856 46.6657 85.5525 46.2428 85.5525H44.6482V82.3839H46.2428Z" fill="#363A8B"/>
<path d="M51.0266 83.9682C51.0266 83.548 51.1946 83.145 51.4936 82.8479C51.7927 82.5508 52.1983 82.3839 52.6212 82.3839C53.0441 82.3839 53.4497 82.5508 53.7487 82.8479C54.0478 83.145 54.2158 83.548 54.2158 83.9682V85.5525H51.0266V83.9682Z" fill="#363A8B"/>
<path d="M58.9995 82.3839C59.4225 82.3839 59.8281 82.5508 60.1271 82.8479C60.4261 83.145 60.5941 83.548 60.5941 83.9682C60.5941 84.3884 60.4261 84.7914 60.1271 85.0885C59.8281 85.3856 59.4225 85.5525 58.9995 85.5525C58.5766 85.5525 58.171 85.3856 57.872 85.0885C57.573 84.7914 57.405 84.3884 57.405 83.9682C57.405 83.548 57.573 83.145 57.872 82.8479C58.171 82.5508 58.5766 82.3839 58.9995 82.3839Z" fill="#363A8B"/>
<path d="M66.9725 83.9682C66.9725 84.3884 67.1405 84.7914 67.4396 85.0885C67.7386 85.3856 68.1442 85.5525 68.5671 85.5525C68.99 85.5525 69.3956 85.3856 69.6947 85.0885C69.9937 84.7914 70.1617 84.3884 70.1617 83.9682V82.3839H66.9725V83.9682Z" fill="#363A8B"/>
<path d="M73.3509 83.9682C73.3509 84.3884 73.5189 84.7914 73.8179 85.0885C74.117 85.3856 74.5226 85.5525 74.9455 85.5525C75.3684 85.5525 75.774 85.3856 76.073 85.0885C76.3721 84.7914 76.5401 84.3884 76.5401 83.9682V82.3839H73.3509V83.9682Z" fill="#363A8B"/>
<path d="M82.9185 85.5525C82.9185 84.7121 83.2545 83.9062 83.8526 83.312C84.4507 82.7177 85.2618 82.3839 86.1077 82.3839V85.5525H82.9185Z" fill="#363A8B"/>
<path d="M86.1077 82.3839H89.2968V85.5525H86.1077V82.3839Z" fill="#363A8B"/>
<path d="M89.2968 82.3839H92.486V85.5525H89.2968V82.3839Z" fill="#363A8B"/>
<path d="M92.486 82.3839H95.6752V85.5525H92.486V82.3839Z" fill="#363A8B"/>
<path d="M95.6752 82.3839H98.8644V85.5525H95.6752V82.3839Z" fill="#363A8B"/>
<path d="M98.8644 85.5525C99.7102 85.5525 100.521 85.2187 101.12 84.6244C101.718 84.0302 102.054 83.2243 102.054 82.3839H98.8644V85.5525Z" fill="#363A8B"/>
<path d="M106.837 82.3839C106.414 82.3839 106.009 82.5508 105.71 82.8479C105.411 83.145 105.243 83.548 105.243 83.9682C105.243 84.3884 105.411 84.7914 105.71 85.0885C106.009 85.3856 106.414 85.5525 106.837 85.5525H108.432V82.3839H106.837Z" fill="#363A8B"/>
<path d="M108.432 82.3839H111.621V85.5525H108.432V82.3839Z" fill="#363A8B"/>
<path d="M33.486 85.5525C33.909 85.5525 34.3145 85.7194 34.6136 86.0165C34.9126 86.3137 35.0806 86.7166 35.0806 87.1368C35.0806 87.557 34.9126 87.96 34.6136 88.2571C34.3145 88.5542 33.909 88.7211 33.486 88.7211C33.0631 88.7211 32.6575 88.5542 32.3585 88.2571C32.0594 87.96 31.8914 87.557 31.8914 87.1368C31.8914 86.7166 32.0594 86.3137 32.3585 86.0165C32.6575 85.7194 33.0631 85.5525 33.486 85.5525Z" fill="#363A8B"/>
<path d="M39.8644 85.5525C40.2873 85.5525 40.6929 85.7194 40.992 86.0165C41.291 86.3137 41.459 86.7166 41.459 87.1368C41.459 87.557 41.291 87.96 40.992 88.2571C40.6929 88.5542 40.2873 88.7211 39.8644 88.7211C39.4415 88.7211 39.0359 88.5542 38.7369 88.2571C38.4378 87.96 38.2698 87.557 38.2698 87.1368C38.2698 86.7166 38.4378 86.3137 38.7369 86.0165C39.0359 85.7194 39.4415 85.5525 39.8644 85.5525Z" fill="#363A8B"/>
<path d="M49.432 85.5525C49.0091 85.5525 48.6035 85.7194 48.3044 86.0165C48.0054 86.3137 47.8374 86.7166 47.8374 87.1368C47.8374 87.557 48.0054 87.96 48.3044 88.2571C48.6035 88.5542 49.0091 88.7211 49.432 88.7211H51.0266V85.5525H49.432Z" fill="#363A8B"/>
<path d="M51.0266 85.5525H54.2158V88.7211H51.0266V85.5525Z" fill="#363A8B"/>
<path d="M63.7833 87.1368C63.7833 86.7166 63.9513 86.3137 64.2504 86.0165C64.5494 85.7194 64.955 85.5525 65.3779 85.5525C65.8008 85.5525 66.2064 85.7194 66.5055 86.0165C66.8045 86.3137 66.9725 86.7166 66.9725 87.1368V88.7211H63.7833V87.1368Z" fill="#363A8B"/>
<path d="M70.1617 87.1368C70.1617 86.7166 70.3297 86.3137 70.6288 86.0165C70.9278 85.7194 71.3334 85.5525 71.7563 85.5525C72.1792 85.5525 72.5848 85.7194 72.8839 86.0165C73.1829 86.3137 73.3509 86.7166 73.3509 87.1368V88.7211H70.1617V87.1368Z" fill="#363A8B"/>
<path d="M81.3239 85.5525C80.901 85.5525 80.4954 85.7194 80.1963 86.0165C79.8973 86.3137 79.7293 86.7166 79.7293 87.1368C79.7293 87.557 79.8973 87.96 80.1963 88.2571C80.4954 88.5542 80.901 88.7211 81.3239 88.7211H82.9185V85.5525H81.3239Z" fill="#363A8B"/>
<path d="M82.9185 85.5525H86.1077V88.7211H82.9185V85.5525Z" fill="#363A8B"/>
<path d="M95.6752 85.5525H98.8644V88.7211H95.6752V85.5525Z" fill="#363A8B"/>
<path d="M108.432 87.1368C108.432 87.557 108.6 87.96 108.899 88.2571C109.198 88.5542 109.604 88.7211 110.027 88.7211C110.449 88.7211 110.855 88.5542 111.154 88.2571C111.453 87.96 111.621 87.557 111.621 87.1368V85.5525H108.432V87.1368Z" fill="#363A8B"/>
<path d="M6.37793 91.8897C6.37793 91.0494 6.71393 90.2434 7.31202 89.6492C7.91011 89.0549 8.72129 88.7211 9.56712 88.7211V91.8897H6.37793Z" fill="#363A8B"/>
<path d="M9.56712 88.7211H12.7563V91.8897H9.56712V88.7211Z" fill="#363A8B"/>
<path d="M12.7563 88.7211H15.9455V91.8897H12.7563V88.7211Z" fill="#363A8B"/>
<path d="M15.9455 88.7211H19.1347V91.8897H15.9455V88.7211Z" fill="#363A8B"/>
<path d="M19.1347 88.7211H22.3239V91.8897H19.1347V88.7211Z" fill="#363A8B"/>
<path d="M22.3239 88.7211H25.5131V91.8897H22.3239V88.7211Z" fill="#363A8B"/>
<path d="M25.5131 88.7211C26.3589 88.7211 27.1701 89.0549 27.7682 89.6492C28.3663 90.2434 28.7023 91.0494 28.7023 91.8897H25.5131V88.7211Z" fill="#363A8B"/>
<path d="M35.0806 90.3054C35.0806 89.8852 35.2486 89.4823 35.5477 89.1852C35.8467 88.888 36.2523 88.7211 36.6752 88.7211C37.0981 88.7211 37.5037 88.888 37.8028 89.1852C38.1018 89.4823 38.2698 89.8852 38.2698 90.3054V91.8897H35.0806V90.3054Z" fill="#363A8B"/>
<path d="M43.0536 88.7211C43.4765 88.7211 43.8821 88.888 44.1812 89.1852C44.4802 89.4823 44.6482 89.8852 44.6482 90.3054C44.6482 90.7256 44.4802 91.1286 44.1812 91.4257C43.8821 91.7228 43.4765 91.8897 43.0536 91.8897C42.6307 91.8897 42.2251 91.7228 41.9261 91.4257C41.627 91.1286 41.459 90.7256 41.459 90.3054C41.459 89.8852 41.627 89.4823 41.9261 89.1852C42.2251 88.888 42.6307 88.7211 43.0536 88.7211Z" fill="#363A8B"/>
<path d="M51.0266 88.7211H54.2158V91.8897H51.0266V88.7211Z" fill="#363A8B"/>
<path d="M55.8104 88.7211C56.2333 88.7211 56.6389 88.888 56.9379 89.1852C57.237 89.4823 57.405 89.8852 57.405 90.3054C57.405 90.7256 57.237 91.1286 56.9379 91.4257C56.6389 91.7228 56.2333 91.8897 55.8104 91.8897H54.2158V88.7211H55.8104Z" fill="#363A8B"/>
<path d="M60.5941 91.8897C60.5941 91.0494 60.9302 90.2434 61.5282 89.6492C62.1263 89.0549 62.9375 88.7211 63.7833 88.7211V91.8897H60.5941Z" fill="#363A8B"/>
<path d="M63.7833 88.7211H66.9725V91.8897H63.7833V88.7211Z" fill="#363A8B"/>
<path d="M66.9725 88.7211H70.1617V91.8897H66.9725V88.7211Z" fill="#363A8B"/>
<path d="M70.1617 88.7211H73.3509V91.8897H70.1617V88.7211Z" fill="#363A8B"/>
<path d="M74.9455 88.7211C75.3684 88.7211 75.774 88.888 76.073 89.1852C76.3721 89.4823 76.5401 89.8852 76.5401 90.3054C76.5401 90.7256 76.3721 91.1286 76.073 91.4257C75.774 91.7228 75.3684 91.8897 74.9455 91.8897H73.3509V88.7211H74.9455Z" fill="#363A8B"/>
<path d="M82.9185 88.7211H86.1077V91.8897H82.9185V88.7211Z" fill="#363A8B"/>
<path d="M90.8914 88.7211C91.3144 88.7211 91.7199 88.888 92.019 89.1852C92.318 89.4823 92.486 89.8852 92.486 90.3054C92.486 90.7256 92.318 91.1286 92.019 91.4257C91.7199 91.7228 91.3144 91.8897 90.8914 91.8897C90.4685 91.8897 90.0629 91.7228 89.7639 91.4257C89.4648 91.1286 89.2968 90.7256 89.2968 90.3054C89.2968 89.8852 89.4648 89.4823 89.7639 89.1852C90.0629 88.888 90.4685 88.7211 90.8914 88.7211Z" fill="#363A8B"/>
<path d="M95.6752 88.7211H98.8644V91.8897H95.6752V88.7211Z" fill="#363A8B"/>
<path d="M98.8644 88.7211H102.054V91.8897H98.8644V88.7211Z" fill="#363A8B"/>
<path d="M102.054 88.7211H105.243V91.8897H102.054V88.7211Z" fill="#363A8B"/>
<path d="M106.837 88.7211C107.26 88.7211 107.666 88.888 107.965 89.1852C108.264 89.4823 108.432 89.8852 108.432 90.3054C108.432 90.7256 108.264 91.1286 107.965 91.4257C107.666 91.7228 107.26 91.8897 106.837 91.8897H105.243V88.7211H106.837Z" fill="#363A8B"/>
<path d="M6.37793 91.8897H9.56712V95.0583H6.37793V91.8897Z" fill="#363A8B"/>
<path d="M25.5131 91.8897H28.7023V95.0583H25.5131V91.8897Z" fill="#363A8B"/>
<path d="M35.0806 93.474C35.0806 93.8942 35.2486 94.2972 35.5477 94.5943C35.8467 94.8914 36.2523 95.0583 36.6752 95.0583C37.0981 95.0583 37.5037 94.8914 37.8028 94.5943C38.1018 94.2972 38.2698 93.8942 38.2698 93.474V91.8897H35.0806V93.474Z" fill="#363A8B"/>
<path d="M49.432 91.8897C49.0091 91.8897 48.6035 92.0566 48.3044 92.3538C48.0054 92.6509 47.8374 93.0538 47.8374 93.474C47.8374 93.8942 48.0054 94.2972 48.3044 94.5943C48.6035 94.8914 49.0091 95.0583 49.432 95.0583H51.0266V91.8897H49.432Z" fill="#363A8B"/>
<path d="M51.0266 95.0583C51.8724 95.0583 52.6836 94.7245 53.2817 94.1303C53.8798 93.5361 54.2158 92.7301 54.2158 91.8897H51.0266V95.0583Z" fill="#363A8B"/>
<path d="M58.9995 91.8897C58.5766 91.8897 58.171 92.0566 57.872 92.3538C57.573 92.6509 57.405 93.0538 57.405 93.474C57.405 93.8942 57.573 94.2972 57.872 94.5943C58.171 94.8914 58.5766 95.0583 58.9995 95.0583H60.5941V91.8897H58.9995Z" fill="#363A8B"/>
<path d="M60.5941 91.8897H63.7833V95.0583H60.5941V91.8897Z" fill="#363A8B"/>
<path d="M63.7833 91.8897H66.9725V95.0583H63.7833V91.8897Z" fill="#363A8B"/>
<path d="M66.9725 91.8897H70.1617V95.0583H66.9725V91.8897Z" fill="#363A8B"/>
<path d="M82.9185 91.8897H86.1077V95.0583H82.9185V91.8897Z" fill="#363A8B"/>
<path d="M95.6752 91.8897H98.8644V95.0583H95.6752V91.8897Z" fill="#363A8B"/>
<path d="M110.027 91.8897C110.449 91.8897 110.855 92.0566 111.154 92.3538C111.453 92.6509 111.621 93.0538 111.621 93.474C111.621 93.8942 111.453 94.2972 111.154 94.5943C110.855 94.8914 110.449 95.0583 110.027 95.0583C109.604 95.0583 109.198 94.8914 108.899 94.5943C108.6 94.2972 108.432 93.8942 108.432 93.474C108.432 93.0538 108.6 92.6509 108.899 92.3538C109.198 92.0566 109.604 91.8897 110.027 91.8897Z" fill="#363A8B"/>
<path d="M6.37793 95.0583H9.56712V98.227H6.37793V95.0583Z" fill="#363A8B"/>
<path d="M12.7563 98.227C12.7563 97.3866 13.0923 96.5806 13.6904 95.9864C14.2885 95.3922 15.0997 95.0583 15.9455 95.0583V98.227H12.7563Z" fill="#363A8B"/>
<path d="M15.9455 95.0583H19.1347V98.227H15.9455V95.0583Z" fill="#363A8B"/>
<path d="M19.1347 95.0583C19.9805 95.0583 20.7917 95.3922 21.3898 95.9864C21.9879 96.5806 22.3239 97.3866 22.3239 98.227H19.1347V95.0583Z" fill="#363A8B"/>
<path d="M25.5131 95.0583H28.7023V98.227H25.5131V95.0583Z" fill="#363A8B"/>
<path d="M39.8644 95.0583C40.2873 95.0583 40.6929 95.2253 40.992 95.5224C41.291 95.8195 41.459 96.2225 41.459 96.6426C41.459 97.0628 41.291 97.4658 40.992 97.7629C40.6929 98.06 40.2873 98.227 39.8644 98.227C39.4415 98.227 39.0359 98.06 38.7369 97.7629C38.4378 97.4658 38.2698 97.0628 38.2698 96.6426C38.2698 96.2225 38.4378 95.8195 38.7369 95.5224C39.0359 95.2253 39.4415 95.0583 39.8644 95.0583Z" fill="#363A8B"/>
<path d="M54.2158 96.6426C54.2158 96.2225 54.3838 95.8195 54.6828 95.5224C54.9819 95.2253 55.3874 95.0583 55.8104 95.0583C56.2333 95.0583 56.6389 95.2253 56.9379 95.5224C57.237 95.8195 57.405 96.2225 57.405 96.6426V98.227H54.2158V96.6426Z" fill="#363A8B"/>
<path d="M66.9725 95.0583C66.9725 95.8987 67.3085 96.7047 67.9066 97.2989C68.5047 97.8931 69.3159 98.227 70.1617 98.227V95.0583H66.9725Z" fill="#363A8B"/>
<path d="M70.1617 95.0583C71.0075 95.0583 71.8187 95.3922 72.4168 95.9864C73.0149 96.5806 73.3509 97.3866 73.3509 98.227H70.1617V95.0583Z" fill="#363A8B"/>
<path d="M78.1347 95.0583C78.5576 95.0583 78.9632 95.2253 79.2622 95.5224C79.5613 95.8195 79.7293 96.2225 79.7293 96.6426C79.7293 97.0628 79.5613 97.4658 79.2622 97.7629C78.9632 98.06 78.5576 98.227 78.1347 98.227C77.7118 98.227 77.3062 98.06 77.0071 97.7629C76.7081 97.4658 76.5401 97.0628 76.5401 96.6426C76.5401 96.2225 76.7081 95.8195 77.0071 95.5224C77.3062 95.2253 77.7118 95.0583 78.1347 95.0583Z" fill="#363A8B"/>
<path d="M82.9185 95.0583C82.9185 95.8987 83.2545 96.7047 83.8526 97.2989C84.4507 97.8931 85.2618 98.227 86.1077 98.227V95.0583H82.9185Z" fill="#363A8B"/>
<path d="M86.1077 95.0583H89.2968V98.227H86.1077V95.0583Z" fill="#363A8B"/>
<path d="M89.2968 95.0583H92.486V98.227H89.2968V95.0583Z" fill="#363A8B"/>
<path d="M92.486 95.0583H95.6752V98.227H92.486V95.0583Z" fill="#363A8B"/>
<path d="M95.6752 95.0583H98.8644V98.227H95.6752V95.0583Z" fill="#363A8B"/>
<path d="M6.37793 98.227H9.56712V101.396H6.37793V98.227Z" fill="#363A8B"/>
<path d="M12.7563 98.227H15.9455V101.396H12.7563V98.227Z" fill="#363A8B"/>
<path d="M15.9455 98.227H19.1347V101.396H15.9455V98.227Z" fill="#363A8B"/>
<path d="M19.1347 98.227H22.3239V101.396H19.1347V98.227Z" fill="#363A8B"/>
<path d="M25.5131 98.227H28.7023V101.396H25.5131V98.227Z" fill="#363A8B"/>
<path d="M33.486 98.227C33.909 98.227 34.3145 98.3939 34.6136 98.691C34.9126 98.9881 35.0806 99.3911 35.0806 99.8113C35.0806 100.231 34.9126 100.634 34.6136 100.932C34.3145 101.229 33.909 101.396 33.486 101.396C33.0631 101.396 32.6575 101.229 32.3585 100.932C32.0594 100.634 31.8914 100.231 31.8914 99.8113C31.8914 99.3911 32.0594 98.9881 32.3585 98.691C32.6575 98.3939 33.0631 98.227 33.486 98.227Z" fill="#363A8B"/>
<path d="M51.0266 101.396C51.0266 100.555 51.3626 99.7492 51.9607 99.155C52.5588 98.5608 53.3699 98.227 54.2158 98.227V101.396H51.0266Z" fill="#363A8B"/>
<path d="M54.2158 101.396C55.0616 101.396 55.8728 101.062 56.4709 100.468C57.069 99.8733 57.405 99.0673 57.405 98.227H54.2158V101.396Z" fill="#363A8B"/>
<path d="M62.1887 98.227C62.6117 98.227 63.0172 98.3939 63.3163 98.691C63.6153 98.9881 63.7833 99.3911 63.7833 99.8113C63.7833 100.231 63.6153 100.634 63.3163 100.932C63.0172 101.229 62.6117 101.396 62.1887 101.396C61.7658 101.396 61.3602 101.229 61.0612 100.932C60.7621 100.634 60.5941 100.231 60.5941 99.8113C60.5941 99.3911 60.7621 98.9881 61.0612 98.691C61.3602 98.3939 61.7658 98.227 62.1887 98.227Z" fill="#363A8B"/>
<path d="M70.1617 99.8113C70.1617 100.231 70.3297 100.634 70.6288 100.932C70.9278 101.229 71.3334 101.396 71.7563 101.396C72.1792 101.396 72.5848 101.229 72.8839 100.932C73.1829 100.634 73.3509 100.231 73.3509 99.8113V98.227H70.1617V99.8113Z" fill="#363A8B"/>
<path d="M81.3239 98.227C81.7468 98.227 82.1524 98.3939 82.4514 98.691C82.7505 98.9881 82.9185 99.3911 82.9185 99.8113C82.9185 100.231 82.7505 100.634 82.4514 100.932C82.1524 101.229 81.7468 101.396 81.3239 101.396C80.901 101.396 80.4954 101.229 80.1963 100.932C79.8973 100.634 79.7293 100.231 79.7293 99.8113C79.7293 99.3911 79.8973 98.9881 80.1963 98.691C80.4954 98.3939 80.901 98.227 81.3239 98.227Z" fill="#363A8B"/>
<path d="M89.2968 99.8113C89.2968 100.231 89.4648 100.634 89.7639 100.932C90.0629 101.229 90.4685 101.396 90.8914 101.396C91.3144 101.396 91.7199 101.229 92.019 100.932C92.318 100.634 92.486 100.231 92.486 99.8113V98.227H89.2968V99.8113Z" fill="#363A8B"/>
<path d="M95.6752 98.227H98.8644V101.396H95.6752V98.227Z" fill="#363A8B"/>
<path d="M98.8644 98.227C99.7102 98.227 100.521 98.5608 101.12 99.155C101.718 99.7492 102.054 100.555 102.054 101.396H98.8644V98.227Z" fill="#363A8B"/>
<path d="M108.432 99.8113C108.432 99.3911 108.6 98.9881 108.899 98.691C109.198 98.3939 109.604 98.227 110.027 98.227C110.449 98.227 110.855 98.3939 111.154 98.691C111.453 98.9881 111.621 99.3911 111.621 99.8113V101.396H108.432V99.8113Z" fill="#363A8B"/>
<path d="M6.37793 101.396H9.56712V104.564H6.37793V101.396Z" fill="#363A8B"/>
<path d="M12.7563 101.396C12.7563 102.236 13.0923 103.042 13.6904 103.636C14.2885 104.23 15.0997 104.564 15.9455 104.564V101.396H12.7563Z" fill="#363A8B"/>
<path d="M15.9455 101.396H19.1347V104.564H15.9455V101.396Z" fill="#363A8B"/>
<path d="M19.1347 104.564C19.9805 104.564 20.7917 104.23 21.3898 103.636C21.9879 103.042 22.3239 102.236 22.3239 101.396H19.1347V104.564Z" fill="#363A8B"/>
<path d="M25.5131 101.396H28.7023V104.564H25.5131V101.396Z" fill="#363A8B"/>
<path d="M49.432 101.396C49.0091 101.396 48.6035 101.562 48.3044 101.86C48.0054 102.157 47.8374 102.56 47.8374 102.98C47.8374 103.4 48.0054 103.803 48.3044 104.1C48.6035 104.397 49.0091 104.564 49.432 104.564H51.0266V101.396H49.432Z" fill="#363A8B"/>
<path d="M51.0266 104.564C51.8724 104.564 52.6836 104.23 53.2817 103.636C53.8798 103.042 54.2158 102.236 54.2158 101.396H51.0266V104.564Z" fill="#363A8B"/>
<path d="M63.7833 104.564C63.7833 103.724 64.1193 102.918 64.7174 102.324C65.3155 101.729 66.1267 101.396 66.9725 101.396V104.564H63.7833Z" fill="#363A8B"/>
<path d="M66.9725 101.396C67.8183 101.396 68.6295 101.729 69.2276 102.324C69.8257 102.918 70.1617 103.724 70.1617 104.564H66.9725V101.396Z" fill="#363A8B"/>
<path d="M74.9455 101.396C74.5226 101.396 74.117 101.562 73.8179 101.86C73.5189 102.157 73.3509 102.56 73.3509 102.98C73.3509 103.4 73.5189 103.803 73.8179 104.1C74.117 104.397 74.5226 104.564 74.9455 104.564H76.5401V101.396H74.9455Z" fill="#363A8B"/>
<path d="M76.5401 101.396C77.3859 101.396 78.1971 101.729 78.7952 102.324C79.3933 102.918 79.7293 103.724 79.7293 104.564H76.5401V101.396Z" fill="#363A8B"/>
<path d="M86.1077 102.98C86.1077 102.56 86.2757 102.157 86.5747 101.86C86.8737 101.562 87.2793 101.396 87.7023 101.396C88.1252 101.396 88.5308 101.562 88.8298 101.86C89.1288 102.157 89.2968 102.56 89.2968 102.98V104.564H86.1077V102.98Z" fill="#363A8B"/>
<path d="M92.486 104.564C92.486 103.724 92.822 102.918 93.4201 102.324C94.0182 101.729 94.8294 101.396 95.6752 101.396V104.564H92.486Z" fill="#363A8B"/>
<path d="M95.6752 101.396H98.8644V104.564H95.6752V101.396Z" fill="#363A8B"/>
<path d="M98.8644 101.396H102.054V104.564H98.8644V101.396Z" fill="#363A8B"/>
<path d="M103.648 101.396C104.071 101.396 104.477 101.562 104.776 101.86C105.075 102.157 105.243 102.56 105.243 102.98C105.243 103.4 105.075 103.803 104.776 104.1C104.477 104.397 104.071 104.564 103.648 104.564H102.054V101.396H103.648Z" fill="#363A8B"/>
<path d="M108.432 102.98C108.432 103.4 108.6 103.803 108.899 104.1C109.198 104.397 109.604 104.564 110.027 104.564C110.449 104.564 110.855 104.397 111.154 104.1C111.453 103.803 111.621 103.4 111.621 102.98V101.396H108.432V102.98Z" fill="#363A8B"/>
<path d="M6.37793 104.564H9.56712V107.733H6.37793V104.564Z" fill="#363A8B"/>
<path d="M25.5131 104.564H28.7023V107.733H25.5131V104.564Z" fill="#363A8B"/>
<path d="M36.6752 104.564C36.2523 104.564 35.8467 104.731 35.5477 105.028C35.2486 105.325 35.0806 105.728 35.0806 106.148C35.0806 106.569 35.2486 106.972 35.5477 107.269C35.8467 107.566 36.2523 107.733 36.6752 107.733H38.2698V104.564H36.6752Z" fill="#363A8B"/>
<path d="M38.2698 104.564H41.459V107.733H38.2698V104.564Z" fill="#363A8B"/>
<path d="M41.459 104.564C42.3048 104.564 43.116 104.898 43.7141 105.492C44.3122 106.086 44.6482 106.892 44.6482 107.733H41.459V104.564Z" fill="#363A8B"/>
<path d="M54.2158 106.148C54.2158 105.728 54.3838 105.325 54.6828 105.028C54.9819 104.731 55.3874 104.564 55.8104 104.564C56.2333 104.564 56.6389 104.731 56.9379 105.028C57.237 105.325 57.405 105.728 57.405 106.148V107.733H54.2158V106.148Z" fill="#363A8B"/>
<path d="M60.5941 107.733C60.5941 106.892 60.9302 106.086 61.5282 105.492C62.1263 104.898 62.9375 104.564 63.7833 104.564V107.733H60.5941Z" fill="#363A8B"/>
<path d="M63.7833 104.564H66.9725V107.733H63.7833V104.564Z" fill="#363A8B"/>
<path d="M66.9725 104.564H70.1617V107.733H66.9725V104.564Z" fill="#363A8B"/>
<path d="M76.5401 106.148C76.5401 106.569 76.7081 106.972 77.0071 107.269C77.3062 107.566 77.7118 107.733 78.1347 107.733C78.5576 107.733 78.9632 107.566 79.2622 107.269C79.5613 106.972 79.7293 106.569 79.7293 106.148V104.564H76.5401V106.148Z" fill="#363A8B"/>
<path d="M82.9185 107.733C82.9185 106.892 83.2545 106.086 83.8526 105.492C84.4507 104.898 85.2618 104.564 86.1077 104.564V107.733H82.9185Z" fill="#363A8B"/>
<path d="M86.1077 104.564H89.2968V107.733H86.1077V104.564Z" fill="#363A8B"/>
<path d="M89.2968 104.564H92.486V107.733H89.2968V104.564Z" fill="#363A8B"/>
<path d="M92.486 104.564H95.6752V107.733H92.486V104.564Z" fill="#363A8B"/>
<path d="M95.6752 104.564H98.8644V107.733H95.6752V104.564Z" fill="#363A8B"/>
<path d="M6.37793 107.733C6.37793 108.573 6.71393 109.379 7.31202 109.973C7.91011 110.568 8.72129 110.901 9.56712 110.901V107.733H6.37793Z" fill="#363A8B"/>
<path d="M9.56712 107.733H12.7563V110.901H9.56712V107.733Z" fill="#363A8B"/>
<path d="M12.7563 107.733H15.9455V110.901H12.7563V107.733Z" fill="#363A8B"/>
<path d="M15.9455 107.733H19.1347V110.901H15.9455V107.733Z" fill="#363A8B"/>
<path d="M19.1347 107.733H22.3239V110.901H19.1347V107.733Z" fill="#363A8B"/>
<path d="M22.3239 107.733H25.5131V110.901H22.3239V107.733Z" fill="#363A8B"/>
<path d="M25.5131 110.901C26.3589 110.901 27.1701 110.568 27.7682 109.973C28.3663 109.379 28.7023 108.573 28.7023 107.733H25.5131V110.901Z" fill="#363A8B"/>
<path d="M38.2698 107.733C38.2698 108.573 38.6058 109.379 39.2039 109.973C39.802 110.568 40.6132 110.901 41.459 110.901V107.733H38.2698Z" fill="#363A8B"/>
<path d="M41.459 107.733H44.6482V110.901H41.459V107.733Z" fill="#363A8B"/>
<path d="M46.2428 107.733C46.6657 107.733 47.0713 107.9 47.3703 108.197C47.6694 108.494 47.8374 108.897 47.8374 109.317C47.8374 109.737 47.6694 110.14 47.3703 110.437C47.0713 110.734 46.6657 110.901 46.2428 110.901H44.6482V107.733H46.2428Z" fill="#363A8B"/>
<path d="M54.2158 109.317C54.2158 109.737 54.3838 110.14 54.6828 110.437C54.9819 110.734 55.3874 110.901 55.8104 110.901C56.2333 110.901 56.6389 110.734 56.9379 110.437C57.237 110.14 57.405 109.737 57.405 109.317V107.733H54.2158V109.317Z" fill="#363A8B"/>
<path d="M60.5941 107.733C60.5941 108.573 60.9302 109.379 61.5282 109.973C62.1263 110.568 62.9375 110.901 63.7833 110.901V107.733H60.5941Z" fill="#363A8B"/>
<path d="M63.7833 107.733H66.9725V110.901H63.7833V107.733Z" fill="#363A8B"/>
<path d="M66.9725 107.733H70.1617V110.901H66.9725V107.733Z" fill="#363A8B"/>
<path d="M71.7563 107.733C72.1792 107.733 72.5848 107.9 72.8839 108.197C73.1829 108.494 73.3509 108.897 73.3509 109.317C73.3509 109.737 73.1829 110.14 72.8839 110.437C72.5848 110.734 72.1792 110.901 71.7563 110.901H70.1617V107.733H71.7563Z" fill="#363A8B"/>
<path d="M82.9185 109.317C82.9185 109.737 83.0865 110.14 83.3855 110.437C83.6846 110.734 84.0901 110.901 84.5131 110.901C84.936 110.901 85.3416 110.734 85.6406 110.437C85.9397 110.14 86.1077 109.737 86.1077 109.317V107.733H82.9185V109.317Z" fill="#363A8B"/>
<path d="M92.486 107.733C92.486 108.573 92.822 109.379 93.4201 109.973C94.0182 110.568 94.8294 110.901 95.6752 110.901V107.733H92.486Z" fill="#363A8B"/>
<path d="M95.6752 110.901C96.521 110.901 97.3322 110.568 97.9303 109.973C98.5284 109.379 98.8644 108.573 98.8644 107.733H95.6752V110.901Z" fill="#363A8B"/>
<path d="M106.837 107.733C107.26 107.733 107.666 107.9 107.965 108.197C108.264 108.494 108.432 108.897 108.432 109.317C108.432 109.737 108.264 110.14 107.965 110.437C107.666 110.734 107.26 110.901 106.837 110.901C106.414 110.901 106.009 110.734 105.71 110.437C105.411 110.14 105.243 109.737 105.243 109.317C105.243 108.897 105.411 108.494 105.71 108.197C106.009 107.9 106.414 107.733 106.837 107.733Z" fill="#363A8B"/>
<mask id="mask0_153_1964" style="mask-type:alpha" maskUnits="userSpaceOnUse" x="46" y="46" width="25" height="25">
<path d="M46.4385 51.2919C46.4385 48.6116 48.6113 46.4387 51.2917 46.4387H65.9465C68.6269 46.4387 70.7998 48.6116 70.7998 51.2919V65.9468C70.7998 68.6271 68.6269 70.8 65.9465 70.8H51.2917C48.6113 70.8 46.4385 68.6271 46.4385 65.9468V51.2919Z" fill="black"/>
</mask>
<g mask="url(#mask0_153_1964)">
<path fill-rule="evenodd" clip-rule="evenodd" d="M70.7998 46.4387H46.4385V70.8H70.7998V46.4387ZM66.0652 53.4806C66.0652 54.7682 65.0214 55.8121 63.7338 55.8121C62.4462 55.8121 61.4023 54.7682 61.4023 53.4806C61.4023 52.193 62.4462 51.1492 63.7338 51.1492C65.0214 51.1492 66.0652 52.193 66.0652 53.4806ZM63.155 58.4888C62.6999 59.2164 61.6954 59.409 60.9111 58.9198C60.1268 58.4306 51.6719 51.3157 51.6719 51.3157C51.6719 51.3157 61.775 55.7937 62.5587 56.2837C63.3423 56.7738 63.6099 57.7608 63.155 58.4888ZM59.6329 65.9044C60.5253 67.0332 62.0244 67.3331 62.9812 66.5745C63.938 65.8157 63.9889 64.2855 63.0971 63.1567C62.2053 62.0279 53.0883 53.3618 51.1963 51.7915C55.4312 57.9652 57.4115 61.7946 58.5256 63.9489C59.0287 64.9219 59.3552 65.5532 59.6329 65.9044Z" fill="#363A8B"/>
</g>
</svg>
