<svg width="153" height="29" viewBox="0 0 153 29" fill="none" xmlns="http://www.w3.org/2000/svg">
<g clip-path="url(#clip0_228_659)">
<path d="M19.5479 10.6316C21.3223 10.6316 22.7607 9.19313 22.7607 7.4187C22.7607 5.64427 21.3223 4.20581 19.5479 4.20581C17.7734 4.20581 16.335 5.64427 16.335 7.4187C16.335 9.19313 17.7734 10.6316 19.5479 10.6316Z" fill="#363A8B"/>
<path d="M18.7503 14.3203C18.1232 15.323 16.7388 15.5884 15.6581 14.9143C14.5773 14.2401 2.92578 4.4353 2.92578 4.4353C2.92578 4.4353 16.8486 10.6063 17.9285 11.2816C19.0084 11.9569 19.3771 13.3171 18.7503 14.3203Z" fill="#363A8B"/>
<path d="M18.5109 25.4631C17.1923 26.5084 15.1265 26.0951 13.8967 24.5396C12.6668 22.984 10.7425 17.4415 2.27051 5.09106C4.87784 7.25506 17.4417 19.1975 18.6706 20.753C19.8996 22.3086 19.8294 24.4174 18.5109 25.4631Z" fill="#363A8B"/>
</g>
<path d="M38.012 14.844C37.7 14.484 37.36 14.232 36.992 14.088C36.632 13.944 36.248 13.872 35.84 13.872C35.44 13.872 35.076 13.948 34.748 14.1C34.42 14.252 34.136 14.492 33.896 14.82C33.664 15.14 33.484 15.552 33.356 16.056C33.228 16.56 33.164 17.16 33.164 17.856C33.164 18.544 33.216 19.128 33.32 19.608C33.424 20.088 33.572 20.476 33.764 20.772C33.964 21.068 34.204 21.284 34.484 21.42C34.764 21.548 35.076 21.612 35.42 21.612C36.004 21.612 36.492 21.496 36.884 21.264C37.284 21.032 37.66 20.704 38.012 20.28V14.844ZM41.324 6.108V24H39.284C38.86 24 38.588 23.808 38.468 23.424L38.192 22.344C37.944 22.616 37.68 22.864 37.4 23.088C37.128 23.312 36.832 23.508 36.512 23.676C36.192 23.836 35.848 23.96 35.48 24.048C35.112 24.136 34.712 24.18 34.28 24.18C33.616 24.18 33.008 24.04 32.456 23.76C31.904 23.48 31.424 23.072 31.016 22.536C30.616 21.992 30.304 21.328 30.08 20.544C29.856 19.76 29.744 18.864 29.744 17.856C29.744 16.936 29.868 16.08 30.116 15.288C30.372 14.496 30.732 13.812 31.196 13.236C31.66 12.66 32.22 12.208 32.876 11.88C33.532 11.552 34.26 11.388 35.06 11.388C35.732 11.388 36.296 11.488 36.752 11.688C37.216 11.888 37.636 12.16 38.012 12.504V6.108H41.324ZM47.4869 11.628V24H44.1749V11.628H47.4869ZM47.8829 8.112C47.8829 8.392 47.8269 8.652 47.7149 8.892C47.6029 9.132 47.4509 9.344 47.2589 9.528C47.0749 9.712 46.8549 9.856 46.5989 9.96C46.3509 10.064 46.0829 10.116 45.7949 10.116C45.5229 10.116 45.2629 10.064 45.0149 9.96C44.7749 9.856 44.5629 9.712 44.3789 9.528C44.1949 9.344 44.0469 9.132 43.9349 8.892C43.8309 8.652 43.7789 8.392 43.7789 8.112C43.7789 7.832 43.8309 7.572 43.9349 7.332C44.0469 7.084 44.1949 6.868 44.3789 6.684C44.5629 6.5 44.7749 6.356 45.0149 6.252C45.2629 6.148 45.5229 6.096 45.7949 6.096C46.0829 6.096 46.3509 6.148 46.5989 6.252C46.8549 6.356 47.0749 6.5 47.2589 6.684C47.4509 6.868 47.6029 7.084 47.7149 7.332C47.8269 7.572 47.8829 7.832 47.8829 8.112ZM61.7013 11.628L56.8413 24H53.8413L48.9813 11.628H51.7293C51.9693 11.628 52.1693 11.684 52.3293 11.796C52.4893 11.908 52.6013 12.052 52.6653 12.228L54.7413 18.348C54.8773 18.764 54.9973 19.172 55.1013 19.572C55.2053 19.964 55.2973 20.36 55.3773 20.76C55.4653 20.36 55.5613 19.964 55.6653 19.572C55.7773 19.172 55.9053 18.764 56.0493 18.348L58.1973 12.228C58.2533 12.052 58.3613 11.908 58.5213 11.796C58.6813 11.684 58.8693 11.628 59.0853 11.628H61.7013ZM66.5182 11.628V24H63.2062V11.628H66.5182ZM66.9142 8.112C66.9142 8.392 66.8582 8.652 66.7462 8.892C66.6342 9.132 66.4822 9.344 66.2902 9.528C66.1062 9.712 65.8862 9.856 65.6302 9.96C65.3822 10.064 65.1142 10.116 64.8262 10.116C64.5542 10.116 64.2942 10.064 64.0462 9.96C63.8062 9.856 63.5942 9.712 63.4102 9.528C63.2262 9.344 63.0782 9.132 62.9662 8.892C62.8622 8.652 62.8102 8.392 62.8102 8.112C62.8102 7.832 62.8622 7.572 62.9662 7.332C63.0782 7.084 63.2262 6.868 63.4102 6.684C63.5942 6.5 63.8062 6.356 64.0462 6.252C64.2942 6.148 64.5542 6.096 64.8262 6.096C65.1142 6.096 65.3822 6.148 65.6302 6.252C65.8862 6.356 66.1062 6.5 66.2902 6.684C66.4822 6.868 66.6342 7.084 66.7462 7.332C66.8582 7.572 66.9142 7.832 66.9142 8.112ZM72.4166 13.068C72.6646 12.828 72.9206 12.608 73.1846 12.408C73.4566 12.208 73.7406 12.036 74.0366 11.892C74.3406 11.748 74.6646 11.636 75.0086 11.556C75.3606 11.476 75.7406 11.436 76.1486 11.436C76.8206 11.436 77.4166 11.552 77.9366 11.784C78.4566 12.016 78.8926 12.34 79.2446 12.756C79.6046 13.172 79.8726 13.668 80.0486 14.244C80.2326 14.82 80.3246 15.452 80.3246 16.14V24H77.0246V16.14C77.0246 15.452 76.8646 14.92 76.5446 14.544C76.2246 14.16 75.7526 13.968 75.1286 13.968C74.6646 13.968 74.2286 14.068 73.8206 14.268C73.4126 14.468 73.0246 14.748 72.6566 15.108V24H69.3446V11.628H71.3846C71.8006 11.628 72.0766 11.82 72.2126 12.204L72.4166 13.068ZM87.5698 17.352C88.2498 17.352 88.7498 17.18 89.0698 16.836C89.3978 16.492 89.5618 16.048 89.5618 15.504C89.5618 14.936 89.3978 14.492 89.0698 14.172C88.7498 13.844 88.2498 13.68 87.5698 13.68C86.8898 13.68 86.3898 13.844 86.0698 14.172C85.7498 14.492 85.5898 14.936 85.5898 15.504C85.5898 16.04 85.7498 16.484 86.0698 16.836C86.3978 17.18 86.8978 17.352 87.5698 17.352ZM90.7018 24.504C90.7018 24.288 90.6338 24.112 90.4978 23.976C90.3618 23.84 90.1778 23.732 89.9458 23.652C89.7218 23.572 89.4538 23.516 89.1418 23.484C88.8298 23.444 88.4978 23.416 88.1458 23.4C87.7938 23.376 87.4298 23.356 87.0538 23.34C86.6778 23.324 86.3098 23.296 85.9498 23.256C85.6698 23.424 85.4378 23.624 85.2538 23.856C85.0778 24.08 84.9898 24.336 84.9898 24.624C84.9898 24.824 85.0338 25.008 85.1217 25.176C85.2178 25.344 85.3738 25.488 85.5898 25.608C85.8058 25.728 86.0898 25.82 86.4418 25.884C86.7938 25.956 87.2338 25.992 87.7617 25.992C88.3058 25.992 88.7658 25.956 89.1418 25.884C89.5178 25.812 89.8218 25.708 90.0538 25.572C90.2858 25.444 90.4498 25.288 90.5458 25.104C90.6498 24.92 90.7018 24.72 90.7018 24.504ZM93.9897 12.036V13.248C93.9897 13.44 93.9338 13.592 93.8218 13.704C93.7178 13.816 93.5418 13.9 93.2938 13.956L92.2858 14.16C92.4218 14.552 92.4898 14.972 92.4898 15.42C92.4898 16.036 92.3618 16.592 92.1058 17.088C91.8578 17.576 91.5138 17.996 91.0738 18.348C90.6338 18.692 90.1138 18.96 89.5138 19.152C88.9138 19.336 88.2658 19.428 87.5698 19.428C87.1298 19.428 86.7178 19.392 86.3338 19.32C85.9978 19.528 85.8298 19.756 85.8298 20.004C85.8298 20.236 85.9418 20.404 86.1658 20.508C86.3978 20.612 86.6978 20.688 87.0658 20.736C87.4418 20.776 87.8658 20.804 88.3378 20.82C88.8178 20.828 89.3018 20.852 89.7898 20.892C90.2858 20.932 90.7698 21.004 91.2418 21.108C91.7218 21.204 92.1458 21.368 92.5138 21.6C92.8898 21.824 93.1898 22.124 93.4138 22.5C93.6458 22.876 93.7618 23.36 93.7618 23.952C93.7618 24.504 93.6258 25.04 93.3538 25.56C93.0818 26.08 92.6858 26.544 92.1658 26.952C91.6538 27.36 91.0218 27.688 90.2698 27.936C89.5178 28.184 88.6618 28.308 87.7018 28.308C86.7498 28.308 85.9218 28.216 85.2178 28.032C84.5218 27.856 83.9418 27.616 83.4778 27.312C83.0218 27.016 82.6818 26.672 82.4578 26.28C82.2338 25.888 82.1218 25.48 82.1218 25.056C82.1218 24.504 82.2898 24.036 82.6258 23.652C82.9618 23.268 83.4258 22.96 84.0178 22.728C83.7058 22.552 83.4538 22.324 83.2618 22.044C83.0778 21.756 82.9858 21.384 82.9858 20.928C82.9858 20.56 83.1178 20.172 83.3818 19.764C83.6538 19.356 84.0698 19.016 84.6298 18.744C83.9978 18.408 83.4978 17.96 83.1298 17.4C82.7618 16.832 82.5778 16.172 82.5778 15.42C82.5778 14.804 82.7018 14.248 82.9498 13.752C83.2058 13.256 83.5578 12.836 84.0058 12.492C84.4538 12.14 84.9818 11.872 85.5898 11.688C86.1978 11.504 86.8578 11.412 87.5698 11.412C88.6258 11.412 89.5578 11.62 90.3658 12.036H93.9897ZM104.515 13.668C104.907 12.964 105.359 12.408 105.871 12C106.383 11.592 106.983 11.388 107.671 11.388C108.231 11.388 108.687 11.52 109.039 11.784L108.823 14.232C108.783 14.392 108.719 14.504 108.631 14.568C108.551 14.624 108.439 14.652 108.295 14.652C108.167 14.652 107.983 14.636 107.743 14.604C107.503 14.564 107.279 14.544 107.071 14.544C106.767 14.544 106.495 14.588 106.255 14.676C106.023 14.764 105.815 14.888 105.631 15.048C105.447 15.208 105.279 15.404 105.127 15.636C104.983 15.868 104.847 16.132 104.719 16.428V24H101.407V11.628H103.363C103.699 11.628 103.931 11.688 104.059 11.808C104.187 11.928 104.279 12.136 104.335 12.432L104.515 13.668ZM121.314 11.628V24H119.274C118.85 24 118.578 23.808 118.458 23.424L118.242 22.56C117.994 22.8 117.738 23.02 117.474 23.22C117.21 23.42 116.926 23.592 116.622 23.736C116.326 23.88 116.002 23.992 115.65 24.072C115.306 24.152 114.93 24.192 114.522 24.192C113.85 24.192 113.25 24.076 112.722 23.844C112.202 23.612 111.766 23.288 111.414 22.872C111.062 22.456 110.794 21.96 110.61 21.384C110.426 20.808 110.334 20.176 110.334 19.488V11.628H113.646V19.488C113.646 20.176 113.802 20.712 114.114 21.096C114.434 21.472 114.906 21.66 115.53 21.66C115.994 21.66 116.43 21.56 116.838 21.36C117.246 21.152 117.634 20.872 118.002 20.52V11.628H121.314ZM127.384 6.108V24H124.072V6.108H127.384ZM137.989 16.356C137.989 16.012 137.941 15.684 137.845 15.372C137.757 15.06 137.613 14.784 137.413 14.544C137.213 14.304 136.961 14.116 136.657 13.98C136.353 13.836 135.989 13.764 135.565 13.764C134.773 13.764 134.153 13.988 133.705 14.436C133.257 14.884 132.965 15.524 132.829 16.356H137.989ZM132.781 18.324C132.885 19.484 133.213 20.332 133.765 20.868C134.325 21.404 135.053 21.672 135.949 21.672C136.405 21.672 136.797 21.62 137.125 21.516C137.461 21.404 137.753 21.284 138.001 21.156C138.257 21.02 138.485 20.9 138.685 20.796C138.893 20.684 139.097 20.628 139.297 20.628C139.553 20.628 139.753 20.724 139.897 20.916L140.857 22.116C140.505 22.524 140.117 22.864 139.693 23.136C139.269 23.4 138.829 23.612 138.373 23.772C137.917 23.924 137.457 24.028 136.993 24.084C136.529 24.148 136.081 24.18 135.649 24.18C134.785 24.18 133.977 24.04 133.225 23.76C132.481 23.472 131.829 23.052 131.269 22.5C130.717 21.94 130.281 21.248 129.961 20.424C129.641 19.6 129.481 18.644 129.481 17.556C129.481 16.716 129.617 15.924 129.889 15.18C130.169 14.436 130.569 13.788 131.089 13.236C131.609 12.684 132.241 12.248 132.985 11.928C133.729 11.6 134.569 11.436 135.505 11.436C136.297 11.436 137.025 11.564 137.689 11.82C138.361 12.068 138.937 12.432 139.417 12.912C139.905 13.392 140.281 13.984 140.545 14.688C140.817 15.384 140.953 16.18 140.953 17.076C140.953 17.324 140.941 17.528 140.917 17.688C140.893 17.848 140.853 17.976 140.797 18.072C140.741 18.168 140.665 18.236 140.569 18.276C140.473 18.308 140.349 18.324 140.197 18.324H132.781ZM150.701 14.172C150.613 14.308 150.521 14.408 150.425 14.472C150.337 14.528 150.213 14.556 150.053 14.556C149.893 14.556 149.729 14.516 149.561 14.436C149.393 14.356 149.205 14.272 148.997 14.184C148.789 14.088 148.549 14 148.277 13.92C148.013 13.84 147.705 13.8 147.353 13.8C146.817 13.8 146.401 13.912 146.105 14.136C145.809 14.352 145.661 14.64 145.661 15C145.661 15.248 145.745 15.456 145.913 15.624C146.081 15.792 146.301 15.94 146.573 16.068C146.853 16.188 147.169 16.304 147.521 16.416C147.873 16.52 148.233 16.636 148.601 16.764C148.977 16.892 149.341 17.04 149.693 17.208C150.045 17.376 150.357 17.588 150.629 17.844C150.909 18.092 151.133 18.396 151.301 18.756C151.469 19.108 151.553 19.536 151.553 20.04C151.553 20.64 151.441 21.196 151.217 21.708C151.001 22.212 150.681 22.648 150.257 23.016C149.833 23.384 149.305 23.672 148.673 23.88C148.041 24.088 147.313 24.192 146.489 24.192C146.065 24.192 145.645 24.152 145.229 24.072C144.813 24 144.417 23.896 144.041 23.76C143.665 23.616 143.313 23.452 142.985 23.268C142.657 23.084 142.373 22.884 142.133 22.668L142.901 21.432C142.989 21.288 143.097 21.176 143.225 21.096C143.361 21.016 143.533 20.976 143.741 20.976C143.941 20.976 144.125 21.028 144.293 21.132C144.461 21.228 144.649 21.336 144.857 21.456C145.065 21.568 145.309 21.676 145.589 21.78C145.877 21.876 146.233 21.924 146.657 21.924C146.977 21.924 147.253 21.888 147.485 21.816C147.717 21.744 147.905 21.648 148.049 21.528C148.193 21.4 148.297 21.26 148.361 21.108C148.433 20.948 148.469 20.784 148.469 20.616C148.469 20.344 148.381 20.124 148.205 19.956C148.037 19.78 147.813 19.628 147.533 19.5C147.261 19.372 146.945 19.256 146.585 19.152C146.225 19.048 145.857 18.932 145.481 18.804C145.113 18.676 144.749 18.524 144.389 18.348C144.037 18.172 143.721 17.952 143.441 17.688C143.169 17.416 142.945 17.084 142.769 16.692C142.601 16.3 142.517 15.824 142.517 15.264C142.517 14.752 142.617 14.268 142.817 13.812C143.017 13.348 143.317 12.94 143.717 12.588C144.117 12.236 144.613 11.956 145.205 11.748C145.805 11.54 146.497 11.436 147.281 11.436C148.161 11.436 148.961 11.58 149.681 11.868C150.401 12.156 150.993 12.532 151.457 12.996L150.701 14.172Z" fill="#363A8B"/>
<defs>
<clipPath id="clip0_228_659">
<rect width="25" height="25" fill="white" transform="translate(0 2)"/>
</clipPath>
</defs>
</svg>
